<svg width="80" height="88" viewBox="0 0 80 88" fill="none" xmlns="http://www.w3.org/2000/svg">
<path d="M62.804 23.3324C62.8586 23.2356 62.9554 23.1725 63.0648 23.1641C63.7925 23.0926 64.5244 23.0505 65.2522 22.9874C67.1746 22.8192 69.0885 22.6089 70.9605 22.1251C71.8985 21.8812 72.7482 21.49 73.4213 20.7791C74.8726 19.2565 75.7475 17.473 75.7643 15.3362C75.7728 14.3645 75.3731 13.5569 74.4561 13.1321C74.0397 12.9428 73.5601 12.8755 73.0974 12.8082C71.3012 12.5558 69.5386 12.1562 67.8013 11.6431C67.612 11.5884 67.5069 11.4916 67.4227 11.3318C67.0484 10.6251 66.6445 9.92267 66.0809 9.35482C64.2089 7.4704 61.9038 6.61232 59.3462 6.24637C58.345 6.28843 57.3396 6.27581 56.3469 6.38097C54.6643 6.55763 53.0742 7.06239 51.7365 8.14341C51.0803 8.6734 50.3147 9.52728 49.608 10.5158C49.608 10.5158 48.5353 12.1899 48.0179 14.9324C47.5005 17.6749 41.7628 40.4226 41.7628 40.4226C41.6955 40.5529 41.6955 40.9483 41.4347 41.0114C40.9088 40.616 37.2491 27.2695 36.4625 24.7751C35.8063 22.8066 33.316 22.0873 31.4147 22.0873C27.94 22.0873 26.6276 24.1862 25.3825 27.0718C22.7576 33.3686 21.6008 34.6389 19.1736 40.9988C19.1063 41.1292 19.0432 41.5246 18.7782 41.5877C18.0588 40.9315 17.7938 25.0611 17.7938 22.8991C17.7938 19.0966 16.9399 16.7369 12.5483 16.7369C8.48052 16.7369 7.10498 18.575 7.10498 22.4406C7.10498 24.2115 7.36579 26.0454 7.36579 27.8163C7.49619 36.3424 7.7612 45.5879 9.85607 53.8491C10.8404 57.782 11.9551 62.8968 17.003 62.8968C22.0509 62.8968 23.2329 57.9796 24.8062 54.3706C27.0356 49.1885 28.8066 43.9432 30.8384 38.698C30.9057 38.5003 31.0361 38.1722 31.2969 38.1091C31.4946 38.2395 31.625 38.5045 31.6923 38.7653C32.2181 40.4688 32.6093 42.307 33.0678 44.0778C33.7871 46.896 34.6411 49.7816 35.495 52.604C36.5424 56.0784 37.1987 61.8494 41.5272 62.7664C42.053 62.8968 42.5746 62.8968 43.1005 62.8968C48.0305 62.8968 50.7017 57.8871 50.8658 57.6516C55.9767 50.3789 62.7997 23.3282 62.7997 23.3282L62.804 23.3324Z" fill="#FE6C5D"/>
<path d="M59.4425 21.6204C59.1775 22.735 58.4582 23.5006 57.5622 24.1273C56.0647 25.1705 54.4241 25.8771 52.5732 25.8982C51.9885 25.9066 51.3575 25.7972 50.8233 25.5701C49.7927 25.1326 49.351 24.2409 49.4267 23.1472C49.6707 19.4709 50.2849 15.8619 51.6099 12.4044C52.0222 11.3275 52.5101 10.2844 53.301 9.42209C53.3809 9.33376 53.465 9.24963 53.6081 9.09821C53.3262 9.60717 53.0612 10.0236 52.8509 10.4695C52.2115 11.8113 51.8834 13.254 51.5637 14.6968C51.0589 17.0018 50.8023 19.3405 50.6088 21.6919C50.5709 22.1546 50.5457 22.6173 50.5331 23.0799C50.5078 23.8876 51.0757 24.6195 51.8792 24.7246C52.7878 24.8424 53.6669 24.6783 54.5293 24.4218C55.6272 24.0937 56.6073 23.5468 57.4991 22.8276C58.4035 22.0999 58.6685 21.0904 58.7232 20.0051C58.82 18.1628 58.5802 16.3457 58.189 14.5496C57.9618 13.498 57.7052 12.4464 57.4613 11.3991C57.4402 11.3023 57.4192 11.2098 57.3982 11.113C57.4192 11.1088 57.436 11.1004 57.457 11.0962C57.6758 11.6556 57.9029 12.2067 58.1091 12.7703C58.8873 14.8903 59.4972 17.0481 59.6108 19.3195C59.6487 20.0977 59.6276 20.8632 59.4468 21.6246L59.4425 21.6204Z" fill="white"/>
<path d="M15.3533 58.3582C13.0439 52.3643 10.8943 45.9623 10.5284 39.5477C10.4821 38.7569 10.032 38.9125 10.0741 39.7075C10.4484 46.2231 11.8282 52.6503 14.1754 58.741C14.4615 59.4771 15.6351 59.1028 15.3491 58.3582H15.3533Z" fill="#F2F2F2"/>
<path d="M10.1634 33.6377C9.83107 33.6672 9.55764 33.9364 9.57447 34.2813L9.68804 36.7252C9.70487 37.0491 9.62074 37.3477 9.95306 37.3141C10.2854 37.2846 10.5588 37.0154 10.542 36.6705L10.807 34.2266C10.7902 33.9027 10.4957 33.6083 10.1634 33.6377Z" fill="#F2F2F2"/>
<path d="M10.7983 71.9067C11.0675 72.2516 12.8301 74.931 12.9352 74.9605C12.9731 74.9352 12.9478 74.8721 12.952 74.8469C12.8595 74.1234 12.7501 73.4041 12.6113 72.6849C12.5482 72.3231 12.3295 71.7973 12.4683 71.4398C12.565 71.1958 12.788 71.0065 13.0362 70.9182C13.3979 70.7878 13.9406 70.771 14.1004 71.2042C14.1762 71.4103 14.1804 71.6417 14.2224 71.8478C14.5211 73.5135 14.9207 75.5956 14.8534 77.2781C14.8324 77.7619 14.6809 78.2035 14.1972 78.3844C14.1131 78.4138 14.0331 78.4433 13.9448 78.4559C13.2129 78.5611 12.7796 77.6946 12.4136 77.2108C12.1192 76.8196 11.8163 76.4158 11.5429 76.012C11.3704 75.7597 11.2021 75.4947 11.0212 75.2591C10.996 75.2213 10.9581 75.1876 10.9203 75.1792C10.8824 75.2044 10.8824 75.2633 10.8824 75.297C10.8656 76.235 10.8908 77.1604 10.8404 78.1026C10.8025 78.7587 10.8698 79.6084 10.1084 79.8902C9.31759 80.1805 8.84645 79.4444 8.46786 78.8849C7.66441 77.7114 7.08811 76.277 6.57491 74.9478C6.47396 74.6702 6.32673 74.3968 6.22577 74.1192C6.00282 73.5135 6.11219 73.1433 6.75159 72.912C7.44146 72.6596 7.71068 72.9793 7.92942 73.5766C8.05562 73.9173 9.01051 76.3906 9.16194 76.4495C9.1998 76.4243 9.18718 76.357 9.19139 76.3317C9.20401 75.196 9.15774 74.0435 9.20401 72.9078C9.23345 72.382 9.31759 71.9782 9.86444 71.7763C10.1631 71.6669 10.5964 71.6375 10.8109 71.9067H10.7983Z" fill="#004B5E"/>
<path d="M21.7853 75.8985C21.4151 76.3612 20.8682 76.6893 20.292 76.8155C18.1718 77.2782 17.3432 75.1035 16.9814 73.4546C16.8173 72.7059 16.729 71.8731 16.83 71.1117C16.8931 70.6743 17.1286 70.363 17.5661 70.2705C17.9321 70.1905 18.4495 70.2579 18.5462 70.6953C18.5631 70.7794 18.5588 70.8509 18.5462 70.9435C18.4579 71.6712 18.5084 72.3736 18.6682 73.1013C18.765 73.5388 18.8954 73.9846 19.051 74.4095C19.1814 74.7502 19.6189 75.6882 20.0816 75.5872C20.2331 75.5536 20.3298 75.4442 20.4055 75.3264C21.0239 74.4515 20.8051 72.4157 20.5864 71.4104C20.5233 71.1201 20.4602 70.8215 20.3593 70.5271C20.2835 70.2747 20.1447 70.0475 20.0858 69.7783C19.9807 69.2988 20.3593 69.0254 20.7883 68.9287C21.1837 68.8445 21.5287 68.9287 21.7222 69.2988C21.9788 69.8162 22.1386 70.384 22.2606 70.9435C22.5761 72.3904 22.7822 74.6745 21.7895 75.8985H21.7853Z" fill="#004B5E"/>
<path d="M24.343 69.2525C24.5029 68.4155 26.3075 67.9948 27.0226 67.9065C27.5022 67.8476 28.6926 67.7677 28.7767 68.4407C28.8272 68.8319 28.3729 69.0885 28.0448 69.1263C27.7966 69.1558 27.5274 69.1474 27.2792 69.1768C26.9637 69.2147 26.379 69.3198 26.1098 69.467C25.9962 69.5259 26.0425 70.7121 26.0635 70.8846C26.0761 70.9939 26.1434 71.0738 26.2612 71.057C26.4884 71.0276 27.0983 70.6869 27.5989 70.628C28.0027 70.5775 28.5706 70.7079 28.6295 71.2084C28.7179 71.9067 26.8333 72.117 26.3454 72.4745C26.2528 72.5418 26.2486 72.6722 26.2612 72.7816C26.2907 73.0087 26.4295 73.7995 26.5809 73.9468C26.7324 74.094 26.7576 74.2117 26.7828 74.4179C26.8165 74.6913 26.8796 74.9479 26.9132 75.2171C26.9848 75.8059 26.7071 76.1382 26.1098 76.2097C25.6008 76.2728 25.2517 76.0499 25.0918 75.5494C24.73 74.4137 24.5029 73.2064 24.3599 72.0329C24.2547 71.1748 24.1748 70.1022 24.3346 69.2525H24.343Z" fill="#004B5E"/>
<path d="M31.389 67.8729C32.1882 67.6752 33.2399 67.5869 34.0602 67.5448C34.485 67.5238 35.2128 67.528 35.2422 68.1169C35.2716 68.6848 34.4766 68.7941 34.0728 68.8152C33.6563 68.8362 33.2525 68.8782 32.8487 68.9035C32.4995 68.9245 32.6089 69.1348 32.6257 69.4209C32.6468 69.791 32.6762 70.1738 32.6972 70.5481C32.7056 70.6912 32.8192 70.7921 32.9622 70.7879C33.4544 70.7627 35.0193 70.4808 35.0613 71.2927C35.095 71.9068 34.2326 72.0288 33.7951 72.0498C33.5427 72.0624 33.303 72.0414 33.0506 72.0582C32.9076 72.0666 32.8024 72.1592 32.8108 72.3106C32.8361 72.7691 32.8697 73.2276 32.9286 73.686C32.9496 73.8375 33.0211 73.9889 33.0296 74.1403C33.0548 74.6114 32.5416 74.847 32.1378 74.868C31.898 74.8806 31.6204 74.8302 31.4353 74.6535C31.124 74.3759 31.1408 73.8459 31.1198 73.4631C31.0104 71.8353 30.88 70.1948 30.7917 68.567C30.7706 68.1968 31.0441 67.9613 31.3932 67.8771L31.389 67.8729Z" fill="#004B5E"/>
<path d="M36.9924 71.4398C37.005 69.7657 37.9809 67.9402 39.7477 67.6584C40.0968 67.6079 40.4502 67.5658 40.8119 67.5658C42.6207 67.5784 43.5294 68.8025 43.5167 70.5313C43.4999 72.6344 42.1959 74.4852 39.958 74.4684C38.1281 74.4557 36.9755 73.2401 36.9924 71.4314V71.4398ZM38.7465 71.3894C38.7423 72.2096 39.0073 73.2317 40.0043 73.2401C41.1863 73.2485 41.771 71.566 41.7752 70.5817C41.7752 70.1443 41.6112 68.916 41.0307 68.9118C40.9003 68.9118 40.7783 68.9413 40.6479 68.9413C40.4964 68.9413 40.3408 68.9076 40.1893 68.9034C39.2597 68.895 38.7507 70.6448 38.7465 71.3894Z" fill="#004B5E"/>
<path d="M47.803 68.0285C48.2825 68.0537 48.7579 68.1883 49.2248 68.3355C50.5962 68.773 51.3786 69.9003 51.2986 71.343C51.1977 73.2022 49.717 74.8553 47.782 74.7501C45.8554 74.645 44.8248 73.0213 44.9257 71.2084C45.0099 69.61 46.011 67.9317 47.8072 68.0285H47.803ZM48.7411 69.5175C48.5392 69.4292 48.3078 69.3955 48.0806 69.3829C47.9376 69.3745 47.8114 69.324 47.6684 69.3156C47.6011 69.3156 47.538 69.3156 47.4791 69.3619C46.9112 69.7278 46.6967 70.6364 46.663 71.2589C46.6504 71.4987 46.6462 71.751 46.6799 71.9824C46.7598 72.546 47.2099 73.5261 47.8661 73.5598C48.0428 73.5682 48.2068 73.5135 48.3541 73.4209C49.1239 72.9919 49.5361 72.0791 49.5824 71.2295C49.616 70.5733 49.3973 69.8035 48.7411 69.5175Z" fill="#004B5E"/>
<path d="M56.6413 68.4113C56.1996 69.0381 55.0639 68.3777 54.9461 69.8961C54.8031 71.7427 56.2123 73.5935 56.0734 75.3643C55.9725 76.6851 54.8914 77.1646 53.6925 77.0721C53.2677 77.0384 52.3969 76.9375 52.4432 76.3402C52.481 75.8397 53.0489 75.7387 53.4528 75.7681C53.8482 75.7976 54.2226 75.9154 54.2646 75.3685C54.3908 73.7071 53.0069 71.7133 53.1583 69.7616C53.2508 68.5585 53.9954 67.8603 55.127 67.5743C55.3836 67.507 55.6402 67.4481 55.9136 67.4691C56.3511 67.5028 56.9863 67.936 56.6413 68.4155V68.4113Z" fill="#004B5E"/>
<path d="M45.9686 75.7849C37.2527 75.276 28.4483 76.3149 20.0899 78.8345C17.709 79.5538 15.3618 80.395 13.065 81.3499C12.5728 81.556 12.7873 82.3678 13.2879 82.1617C21.3182 78.8261 29.9164 76.9122 38.603 76.5589C41.0596 76.4579 43.5162 76.4832 45.9686 76.6262C46.5113 76.6556 46.5071 75.8144 45.9686 75.7849Z" fill="#004B5E"/>
<path d="M50.1213 76.4201C49.1791 76.2855 48.2368 76.1509 47.2945 76.0163C47.0716 75.9826 46.8444 76.0709 46.7771 76.3107C46.7224 76.5084 46.8444 76.7944 47.0716 76.8281C48.0139 76.9627 48.9561 77.0973 49.8984 77.2319C50.1213 77.2655 50.3485 77.1772 50.4158 76.9374C50.4705 76.7397 50.3485 76.4537 50.1213 76.4201Z" fill="#004B5E"/>
</svg>
