<svg width="189" height="210" viewBox="0 0 189 210" fill="none" xmlns="http://www.w3.org/2000/svg">
<path d="M149.3 55.47C149.43 55.24 149.66 55.09 149.92 55.07C151.65 54.9 153.39 54.8 155.12 54.65C159.69 54.25 164.24 53.75 168.69 52.6C170.92 52.02 172.94 51.09 174.54 49.4C177.99 45.78 180.07 41.54 180.11 36.46C180.13 34.15 179.18 32.23 177 31.22C176.01 30.77 174.87 30.61 173.77 30.45C169.5 29.85 165.31 28.9 161.18 27.68C160.73 27.55 160.48 27.32 160.28 26.94C159.39 25.26 158.43 23.59 157.09 22.24C152.64 17.76 147.16 15.72 141.08 14.85C138.7 14.95 136.31 14.92 133.95 15.17C129.95 15.59 126.17 16.79 122.99 19.36C121.43 20.62 119.61 22.65 117.93 25C117.93 25 115.38 28.98 114.15 35.5C112.92 42.02 99.2801 96.1 99.2801 96.1C99.1201 96.41 99.1201 97.35 98.5001 97.5C97.2501 96.56 88.5501 64.83 86.6801 58.9C85.1201 54.22 79.2001 52.51 74.6801 52.51C66.4201 52.51 63.3001 57.5 60.3401 64.36C54.1001 79.33 51.3501 82.35 45.5801 97.47C45.4201 97.78 45.2701 98.72 44.6401 98.87C42.9301 97.31 42.3001 59.58 42.3001 54.44C42.3001 45.4 40.2701 39.79 29.8301 39.79C20.1601 39.79 16.8901 44.16 16.8901 53.35C16.8901 57.56 17.5101 61.92 17.5101 66.13C17.8201 86.4 18.4501 108.38 23.4301 128.02C25.7701 137.37 28.4201 149.53 40.4201 149.53C52.4201 149.53 55.2301 137.84 58.9701 129.26C64.2701 116.94 68.4801 104.47 73.3101 92C73.4701 91.53 73.7801 90.75 74.4001 90.6C74.8701 90.91 75.1801 91.54 75.3401 92.16C76.5901 96.21 77.5201 100.58 78.6101 104.79C80.3201 111.49 82.3501 118.35 84.3801 125.06C86.8701 133.32 88.4301 147.04 98.7201 149.22C99.9701 149.53 101.21 149.53 102.46 149.53C114.18 149.53 120.53 137.62 120.92 137.06C133.07 119.77 149.29 55.46 149.29 55.46L149.3 55.47Z" fill="#FE6C5D"/>
<path d="M141.31 51.4C140.68 54.05 138.97 55.87 136.84 57.36C133.28 59.84 129.38 61.52 124.98 61.57C123.59 61.59 122.09 61.33 120.82 60.79C118.37 59.75 117.32 57.63 117.5 55.03C118.08 46.29 119.54 37.71 122.69 29.49C123.67 26.93 124.83 24.45 126.71 22.4C126.9 22.19 127.1 21.99 127.44 21.63C126.77 22.84 126.14 23.83 125.64 24.89C124.12 28.08 123.34 31.51 122.58 34.94C121.38 40.42 120.77 45.98 120.31 51.57C120.22 52.67 120.16 53.77 120.13 54.87C120.07 56.79 121.42 58.53 123.33 58.78C125.49 59.06 127.58 58.67 129.63 58.06C132.24 57.28 134.57 55.98 136.69 54.27C138.84 52.54 139.47 50.14 139.6 47.56C139.83 43.18 139.26 38.86 138.33 34.59C137.79 32.09 137.18 29.59 136.6 27.1C136.55 26.87 136.5 26.65 136.45 26.42C136.5 26.41 136.54 26.39 136.59 26.38C137.11 27.71 137.65 29.02 138.14 30.36C139.99 35.4 141.44 40.53 141.71 45.93C141.8 47.78 141.75 49.6 141.32 51.41L141.31 51.4Z" fill="white"/>
<path d="M36.4999 138.74C31.0099 124.49 25.8999 109.27 25.0299 94.02C24.9199 92.14 23.8499 92.51 23.9499 94.4C24.8399 109.89 28.1199 125.17 33.6999 139.65C34.3799 141.4 37.1699 140.51 36.4899 138.74H36.4999Z" fill="#F2F2F2"/>
<path d="M24.1601 79.97C23.3701 80.04 22.7201 80.68 22.7601 81.5L23.0301 87.31C23.0701 88.08 22.8701 88.79 23.6601 88.71C24.4501 88.64 25.1001 88 25.0601 87.18L25.6901 81.37C25.6501 80.6 24.9501 79.9 24.1601 79.97Z" fill="#F2F2F2"/>
<path d="M25.67 170.95C26.31 171.77 30.5 178.14 30.75 178.21C30.84 178.15 30.78 178 30.79 177.94C30.57 176.22 30.31 174.51 29.98 172.8C29.83 171.94 29.31 170.69 29.64 169.84C29.87 169.26 30.4 168.81 30.99 168.6C31.85 168.29 33.14 168.25 33.52 169.28C33.7 169.77 33.71 170.32 33.81 170.81C34.52 174.77 35.47 179.72 35.31 183.72C35.26 184.87 34.9 185.92 33.75 186.35C33.55 186.42 33.36 186.49 33.15 186.52C31.41 186.77 30.38 184.71 29.51 183.56C28.81 182.63 28.09 181.67 27.44 180.71C27.03 180.11 26.63 179.48 26.2 178.92C26.14 178.83 26.05 178.75 25.96 178.73C25.87 178.79 25.87 178.93 25.87 179.01C25.83 181.24 25.89 183.44 25.77 185.68C25.68 187.24 25.84 189.26 24.03 189.93C22.15 190.62 21.03 188.87 20.13 187.54C18.22 184.75 16.85 181.34 15.63 178.18C15.39 177.52 15.04 176.87 14.8 176.21C14.27 174.77 14.53 173.89 16.05 173.34C17.69 172.74 18.33 173.5 18.85 174.92C19.15 175.73 21.42 181.61 21.78 181.75C21.87 181.69 21.84 181.53 21.85 181.47C21.88 178.77 21.77 176.03 21.88 173.33C21.95 172.08 22.15 171.12 23.45 170.64C24.16 170.38 25.19 170.31 25.7 170.95H25.67Z" fill="white"/>
<path d="M51.7901 180.44C50.9101 181.54 49.6101 182.32 48.2401 182.62C43.2001 183.72 41.2301 178.55 40.3701 174.63C39.9801 172.85 39.7701 170.87 40.0101 169.06C40.1601 168.02 40.7201 167.28 41.7601 167.06C42.6301 166.87 43.8601 167.03 44.0901 168.07C44.1301 168.27 44.1201 168.44 44.0901 168.66C43.8801 170.39 44.0001 172.06 44.3801 173.79C44.6101 174.83 44.9201 175.89 45.2901 176.9C45.6001 177.71 46.6401 179.94 47.7401 179.7C48.1001 179.62 48.3301 179.36 48.5101 179.08C49.9801 177 49.4601 172.16 48.9401 169.77C48.7901 169.08 48.6401 168.37 48.4001 167.67C48.2201 167.07 47.8901 166.53 47.7501 165.89C47.5001 164.75 48.4001 164.1 49.4201 163.87C50.3601 163.67 51.1801 163.87 51.6401 164.75C52.2501 165.98 52.6301 167.33 52.9201 168.66C53.6701 172.1 54.1601 177.53 51.8001 180.44H51.7901Z" fill="white"/>
<path d="M57.8699 164.64C58.2499 162.65 62.5399 161.65 64.2399 161.44C65.3799 161.3 68.2099 161.11 68.4099 162.71C68.5299 163.64 67.4499 164.25 66.6699 164.34C66.0799 164.41 65.4399 164.39 64.8499 164.46C64.0999 164.55 62.7099 164.8 62.0699 165.15C61.7999 165.29 61.9099 168.11 61.9599 168.52C61.9899 168.78 62.1499 168.97 62.4299 168.93C62.9699 168.86 64.4199 168.05 65.6099 167.91C66.5699 167.79 67.9199 168.1 68.0599 169.29C68.2699 170.95 63.7899 171.45 62.6299 172.3C62.4099 172.46 62.3999 172.77 62.4299 173.03C62.4999 173.57 62.8299 175.45 63.1899 175.8C63.5499 176.15 63.6099 176.43 63.6699 176.92C63.7499 177.57 63.8999 178.18 63.9799 178.82C64.1499 180.22 63.4899 181.01 62.0699 181.18C60.8599 181.33 60.0299 180.8 59.6499 179.61C58.7899 176.91 58.2499 174.04 57.9099 171.25C57.6599 169.21 57.4699 166.66 57.8499 164.64H57.8699Z" fill="white"/>
<path d="M74.62 161.36C76.52 160.89 79.02 160.68 80.97 160.58C81.98 160.53 83.71 160.54 83.78 161.94C83.85 163.29 81.96 163.55 81 163.6C80.01 163.65 79.05 163.75 78.09 163.81C77.26 163.86 77.52 164.36 77.56 165.04C77.61 165.92 77.68 166.83 77.73 167.72C77.75 168.06 78.02 168.3 78.36 168.29C79.53 168.23 83.25 167.56 83.35 169.49C83.43 170.95 81.38 171.24 80.34 171.29C79.74 171.32 79.17 171.27 78.57 171.31C78.23 171.33 77.98 171.55 78 171.91C78.06 173 78.14 174.09 78.28 175.18C78.33 175.54 78.5 175.9 78.52 176.26C78.58 177.38 77.36 177.94 76.4 177.99C75.83 178.02 75.17 177.9 74.73 177.48C73.99 176.82 74.03 175.56 73.98 174.65C73.72 170.78 73.41 166.88 73.2 163.01C73.15 162.13 73.8 161.57 74.63 161.37L74.62 161.36Z" fill="white"/>
<path d="M87.9399 169.84C87.9699 165.86 90.2899 161.52 94.4899 160.85C95.3199 160.73 96.1599 160.63 97.0199 160.63C101.32 160.66 103.48 163.57 103.45 167.68C103.41 172.68 100.31 177.08 94.9899 177.04C90.6399 177.01 87.8999 174.12 87.9399 169.82V169.84ZM92.1099 169.72C92.0999 171.67 92.7299 174.1 95.0999 174.12C97.9099 174.14 99.2999 170.14 99.3099 167.8C99.3099 166.76 98.9199 163.84 97.5399 163.83C97.2299 163.83 96.9399 163.9 96.6299 163.9C96.2699 163.9 95.8999 163.82 95.5399 163.81C93.3299 163.79 92.1199 167.95 92.1099 169.72Z" fill="white"/>
<path d="M113.64 161.73C114.78 161.79 115.91 162.11 117.02 162.46C120.28 163.5 122.14 166.18 121.95 169.61C121.71 174.03 118.19 177.96 113.59 177.71C109.01 177.46 106.56 173.6 106.8 169.29C107 165.49 109.38 161.5 113.65 161.73H113.64ZM115.87 165.27C115.39 165.06 114.84 164.98 114.3 164.95C113.96 164.93 113.66 164.81 113.32 164.79C113.16 164.79 113.01 164.79 112.87 164.9C111.52 165.77 111.01 167.93 110.93 169.41C110.9 169.98 110.89 170.58 110.97 171.13C111.16 172.47 112.23 174.8 113.79 174.88C114.21 174.9 114.6 174.77 114.95 174.55C116.78 173.53 117.76 171.36 117.87 169.34C117.95 167.78 117.43 165.95 115.87 165.27Z" fill="white"/>
<path d="M134.65 162.64C133.6 164.13 130.9 162.56 130.62 166.17C130.28 170.56 133.63 174.96 133.3 179.17C133.06 182.31 130.49 183.45 127.64 183.23C126.63 183.15 124.56 182.91 124.67 181.49C124.76 180.3 126.11 180.06 127.07 180.13C128.01 180.2 128.9 180.48 129 179.18C129.3 175.23 126.01 170.49 126.37 165.85C126.59 162.99 128.36 161.33 131.05 160.65C131.66 160.49 132.27 160.35 132.92 160.4C133.96 160.48 135.47 161.51 134.65 162.65V162.64Z" fill="white"/>
<path d="M109.28 180.17C88.5602 178.96 67.6301 181.43 47.7602 187.42C42.1002 189.13 36.5202 191.13 31.0602 193.4C29.8902 193.89 30.4002 195.82 31.5902 195.33C50.6802 187.4 71.1201 182.85 91.7701 182.01C97.6102 181.77 103.45 181.83 109.28 182.17C110.57 182.24 110.56 180.24 109.28 180.17Z" fill="white"/>
<path d="M119.15 181.68C116.91 181.36 114.67 181.04 112.43 180.72C111.9 180.64 111.36 180.85 111.2 181.42C111.07 181.89 111.36 182.57 111.9 182.65C114.14 182.97 116.38 183.29 118.62 183.61C119.15 183.69 119.69 183.48 119.85 182.91C119.98 182.44 119.69 181.76 119.15 181.68Z" fill="#035F75"/>
</svg>
