<svg width="18" height="18" viewBox="0 0 18 18" fill="none" xmlns="http://www.w3.org/2000/svg">
<path d="M8.98693 0.000133298C9.02267 0.000208971 9.05841 0.000284645 9.09524 0.000362612C9.6082 0.00210669 10.1114 0.0109164 10.6153 0.116445C10.6495 0.123421 10.6837 0.130397 10.719 0.137584C12.4178 0.492948 13.9624 1.2625 15.2151 2.46901C15.2498 2.5023 15.2498 2.5023 15.2852 2.53627C15.6184 2.85735 15.9253 3.18381 16.1982 3.5575C16.2284 3.59792 16.2585 3.63834 16.2886 3.67875C16.5006 3.96637 16.6888 4.26531 16.8654 4.57578C16.8782 4.59796 16.891 4.62014 16.9042 4.643C17.6601 5.96382 18.0052 7.4639 18.0022 8.97585C18.0021 9.02903 18.0021 9.02903 18.0021 9.08327C18.0007 9.66297 17.9688 10.2218 17.8485 10.7907C17.8408 10.8273 17.8331 10.8639 17.8252 10.9016C17.5092 12.3501 16.8519 13.7046 15.8822 14.8287C15.8599 14.8549 15.8377 14.8811 15.8147 14.908C15.4 15.3822 14.9523 15.8271 14.4426 16.1981C14.4022 16.2282 14.3618 16.2583 14.3215 16.2884C14.0339 16.5005 13.7353 16.6895 13.4243 16.8653C13.3995 16.8794 13.3746 16.8935 13.3491 16.9081C12.5373 17.3651 11.6542 17.6718 10.7426 17.8594C10.7176 17.8646 10.6927 17.8698 10.667 17.8751C10.1177 17.9799 9.56869 18.002 9.01107 17.9999C8.9771 17.9998 8.94313 17.9997 8.90814 17.9997C8.40487 17.9981 7.91519 17.9802 7.42002 17.8835C7.38852 17.8779 7.35702 17.8722 7.32457 17.8664C5.61501 17.5571 4.03408 16.7339 2.78512 15.531C2.76197 15.5088 2.73882 15.4866 2.71496 15.4637C2.3818 15.1426 2.07492 14.8162 1.80196 14.4425C1.77183 14.4021 1.7417 14.3617 1.71157 14.3212C1.49956 14.0336 1.3114 13.7347 1.13482 13.4242C1.12202 13.402 1.10922 13.3798 1.09604 13.357C0.571753 12.441 0.239117 11.411 0.0814323 10.3694C0.0752059 10.3301 0.0689795 10.2908 0.0625643 10.2503C0.00352525 9.83876 -0.00134069 9.43065 0.000233892 9.01536C0.000347402 8.96161 0.000347402 8.96161 0.000463206 8.90678C0.00220606 8.39317 0.0108837 7.88928 0.116545 7.3848C0.123521 7.35057 0.130497 7.31634 0.137685 7.28108C0.493049 5.58225 1.2626 4.0377 2.46911 2.78502C2.4913 2.76187 2.5135 2.73872 2.53637 2.71486C2.85745 2.3817 3.18391 2.07482 3.5576 1.80186C3.59802 1.77173 3.63844 1.7416 3.67885 1.71147C3.96641 1.49948 4.26497 1.31047 4.57588 1.13472C4.60071 1.1206 4.62554 1.10647 4.65113 1.09192C5.46348 0.634564 6.34731 0.327367 7.25982 0.140585C7.28506 0.135411 7.3103 0.130237 7.33631 0.124906C7.88569 0.020485 8.42901 -0.00199116 8.98693 0.000133298Z" fill="#1877F2"/>
<path d="M11.0342 3.5136C11.0695 3.51373 11.0695 3.51373 11.1056 3.51386C11.5301 3.51566 11.9491 3.54244 12.3707 3.59261C12.4272 3.59897 12.4838 3.60532 12.5403 3.61167C12.918 3.65558 12.918 3.65558 13.0027 3.69794C13.0027 4.42794 13.0027 5.15794 13.0027 5.91005C12.3114 5.91883 12.3114 5.91883 12.0963 5.92051C11.6106 5.92768 11.1429 5.97285 10.7669 6.31467C10.5297 6.56534 10.4376 6.89554 10.4323 7.2341C10.4315 7.274 10.4308 7.3139 10.4301 7.35501C10.4295 7.39657 10.4289 7.43812 10.4284 7.48094C10.4274 7.53866 10.4274 7.53866 10.4264 7.59754C10.424 7.74096 10.4219 7.88438 10.4197 8.0278C10.4146 8.34862 10.4096 8.66944 10.4044 8.99998C11.227 8.99998 12.0497 8.99998 12.8974 8.99998C12.8579 9.43451 12.8579 9.43451 12.8298 9.61046C12.8205 9.6695 12.8205 9.6695 12.811 9.72973C12.8044 9.77086 12.7977 9.81198 12.7909 9.85435C12.7806 9.91942 12.7806 9.91942 12.7701 9.9858C12.7519 10.1 12.7337 10.2141 12.7154 10.3283C12.6968 10.4443 12.6784 10.5604 12.6599 10.6766C12.5593 11.3091 12.5593 11.3091 12.5111 11.5983C11.8159 11.5983 11.1207 11.5983 10.4044 11.5983C10.4044 13.684 10.4044 15.7697 10.4044 17.9186C9.67578 17.9996 9.67578 17.9996 9.39362 17.9982C9.36164 17.9983 9.32966 17.9983 9.29671 17.9984C9.23025 17.9984 9.1638 17.9983 9.09735 17.998C8.99761 17.9977 8.89789 17.998 8.79814 17.9985C8.40582 17.9988 8.01778 17.9856 7.63044 17.9186C7.59532 17.8835 7.59532 17.8835 7.591 17.7811C7.59104 17.7347 7.59107 17.6884 7.5911 17.6407C7.59107 17.615 7.59104 17.5893 7.59101 17.5628C7.59095 17.4761 7.59115 17.3893 7.59134 17.3026C7.59135 17.2407 7.59134 17.1787 7.59132 17.1168C7.59131 16.9481 7.59152 16.7795 7.59176 16.6108C7.59198 16.4347 7.592 16.2587 7.59204 16.0826C7.59215 15.749 7.59244 15.4153 7.59279 15.0817C7.59319 14.7019 7.59338 14.3222 7.59356 13.9425C7.59392 13.1611 7.59457 12.3797 7.59532 11.5983C6.84215 11.5983 6.08898 11.5983 5.31299 11.5983C5.31299 10.7409 5.31299 9.88342 5.31299 8.99998C6.06616 8.99998 6.81933 8.99998 7.59532 8.99998C7.59349 8.74104 7.59349 8.74104 7.59162 8.47686C7.59108 8.36612 7.59057 8.25539 7.59018 8.14466C7.58956 7.96969 7.58882 7.79474 7.58738 7.61978C7.58621 7.4784 7.5856 7.33702 7.58533 7.19563C7.58514 7.14225 7.58476 7.08887 7.58419 7.03549C7.57904 6.53925 7.61919 6.02829 7.79942 5.56112C7.8085 5.53667 7.81758 5.51223 7.82693 5.48704C8.07651 4.83409 8.52936 4.28766 9.14029 3.94373C9.16758 3.92794 9.19488 3.91214 9.223 3.89586C9.78549 3.59153 10.4034 3.50909 11.0342 3.5136Z" fill="#FEFEFE"/>
</svg>
