<svg width="20" height="20" viewBox="0 0 20 20" fill="none" xmlns="http://www.w3.org/2000/svg">
<g clip-path="url(#clip0_416_5560)">
<path d="M9.16667 5.00008C10.0871 5.00008 10.8333 4.25389 10.8333 3.33341C10.8333 2.41294 10.0871 1.66675 9.16667 1.66675C8.24619 1.66675 7.5 2.41294 7.5 3.33341C7.5 4.25389 8.24619 5.00008 9.16667 5.00008Z" stroke="#585858" stroke-width="2" stroke-linecap="round" stroke-linejoin="round"/>
<path d="M14.9987 8.33333C15.9192 8.33333 16.6654 7.58714 16.6654 6.66667C16.6654 5.74619 15.9192 5 14.9987 5C14.0782 5 13.332 5.74619 13.332 6.66667C13.332 7.58714 14.0782 8.33333 14.9987 8.33333Z" stroke="#585858" stroke-width="2" stroke-linecap="round" stroke-linejoin="round"/>
<path d="M16.6667 15.0001C17.5871 15.0001 18.3333 14.2539 18.3333 13.3334C18.3333 12.4129 17.5871 11.6667 16.6667 11.6667C15.7462 11.6667 15 12.4129 15 13.3334C15 14.2539 15.7462 15.0001 16.6667 15.0001Z" stroke="#585858" stroke-width="2" stroke-linecap="round" stroke-linejoin="round"/>
<path d="M7.50012 8.33325C8.04729 8.33325 8.58911 8.44103 9.09463 8.65042C9.60015 8.85981 10.0595 9.16673 10.4464 9.55364C10.8333 9.94055 11.1402 10.3999 11.3496 10.9054C11.559 11.4109 11.6668 11.9527 11.6668 12.4999V15.4166C11.6666 16.1136 11.4167 16.7876 10.9625 17.3163C10.5082 17.845 9.87966 18.1936 9.19061 18.2989C8.50155 18.4041 7.79758 18.2591 7.20619 17.8902C6.61481 17.5212 6.17513 16.9526 5.96678 16.2874C5.61123 15.1402 4.86123 14.3888 3.71678 14.0333C3.05194 13.825 2.48359 13.3857 2.11458 12.7947C1.74558 12.2038 1.6003 11.5003 1.70502 10.8115C1.80975 10.1227 2.15757 9.49416 2.68554 9.0396C3.21351 8.58503 3.88676 8.33447 4.58345 8.33325H7.50012Z" stroke="#585858" stroke-width="2" stroke-linecap="round" stroke-linejoin="round"/>
</g>
<defs>
<clipPath id="clip0_416_5560">
<rect width="20" height="20" fill="white"/>
</clipPath>
</defs>
</svg>
