<svg width="18" height="18" viewBox="0 0 18 18" fill="none" xmlns="http://www.w3.org/2000/svg">
<path d="M18.0005 9.19998C18.0005 8.45999 17.9392 7.91998 17.8066 7.35999H9.18408V10.7H14.2453C14.1433 11.53 13.5923 12.78 12.3677 13.62L12.3506 13.7318L15.0769 15.8016L15.2657 15.82C17.0004 14.2501 18.0005 11.94 18.0005 9.19998Z" fill="#4285F4"/>
<path d="M9.18338 18C11.663 18 13.7445 17.2 15.265 15.8199L12.367 13.6199C11.5915 14.1499 10.5507 14.5199 9.18338 14.5199C6.75484 14.5199 4.6936 12.9499 3.95884 10.7799L3.85114 10.7888L1.01632 12.9389L0.979248 13.0399C2.48945 15.9799 5.59152 18 9.18338 18Z" fill="#34A853"/>
<path d="M3.95917 10.7801C3.76529 10.2202 3.65309 9.62011 3.65309 9.00013C3.65309 8.38009 3.76529 7.78011 3.94897 7.22011L3.94383 7.10079L1.07348 4.91626L0.979574 4.96004C0.357148 6.18009 0 7.55009 0 9.00013C0 10.4501 0.357148 11.8201 0.979574 13.0401L3.95917 10.7801Z" fill="#FBBC05"/>
<path d="M9.18344 3.48C10.9079 3.48 12.0712 4.21001 12.7345 4.82005L15.3263 2.34002C13.7345 0.89001 11.663 0 9.18344 0C5.59152 0 2.48945 2.02 0.979248 4.95999L3.94865 7.22005C4.69363 5.05003 6.75484 3.48 9.18344 3.48Z" fill="#EB4335"/>
</svg>
