<?xml version="1.0" encoding="UTF-8"?>
<svg version="1.1" xmlns="http://www.w3.org/2000/svg" width="512" height="512">
<path d="M0 0 C4.9809293 3.60537881 9.20460332 7.88260509 13.50954247 12.25526237 C14.51521746 13.26206884 15.52178035 14.26798905 16.52915001 15.2730999 C19.23165286 17.97446638 21.92173947 20.68788584 24.60958266 23.40382838 C27.43167526 26.25111623 30.26528346 29.086899 33.09763145 31.92397881 C38.44607719 37.28480147 43.78425394 42.65572761 49.11871606 48.03046137 C55.19792736 54.15455578 61.28865287 60.26714434 67.380319 66.37884605 C79.89879351 78.93900507 92.40290942 91.51336916 104.89748192 104.09730339 C104.90334816 103.34641441 104.9092144 102.59552544 104.91525841 101.82188225 C104.97326699 94.73035758 105.0453901 87.63914775 105.13319683 80.5479393 C105.17784148 76.90263282 105.21711017 73.25743658 105.24391747 69.61195183 C105.27001003 66.09096102 105.31045334 62.57039576 105.36066818 59.04966927 C105.3853655 57.05904338 105.39536638 55.06825264 105.40512657 53.07749748 C105.43481781 51.24627846 105.43481781 51.24627846 105.46510887 49.37806511 C105.47621193 48.30773033 105.48731499 47.23739555 105.4987545 46.13462639 C106.11427161 41.44589876 107.86859311 38.15477244 111.14748192 34.78480339 C114.58290816 32.67670093 116.86529832 32.1668238 120.89748192 32.09730339 C126.10978845 33.6874986 128.87865144 35.56905767 131.89748192 40.09730339 C133.47760902 43.25755759 132.693577 46.55851406 132.42043114 49.99549675 C126.29930411 101.89882174 126.29930411 101.89882174 143.46388817 148.42542839 C151.1680695 157.10068994 160.47454406 164.59596013 170.14102745 170.95857048 C177.2764634 175.70275971 177.2764634 175.70275971 178.52272606 180.30750847 C179.01978414 185.33410955 178.67709617 188.7605925 175.54982567 192.86683464 C172.20375482 196.24454682 169.54665837 197.50303939 164.77248192 197.65980339 C157.57675274 197.48738176 153.30704972 192.79672597 148.53484154 187.98190117 C147.59866653 187.04934778 147.59866653 187.04934778 146.64357889 186.09795493 C144.55627762 184.01628323 142.47619323 181.92754837 140.39601707 179.83875847 C138.89968919 178.34350369 137.40292842 176.84868202 135.90576744 175.3542614 C131.84121234 171.29455471 127.78293742 167.22862275 123.72588205 163.16142297 C119.47634119 158.90309515 115.22152566 154.65004369 110.96739769 150.39629936 C103.82023516 143.24820007 96.67695658 136.09623806 89.53615379 128.94178581 C81.28992011 120.67984755 73.03849289 112.42312611 64.78403628 104.16940385 C55.98862323 95.37466754 47.19702845 86.57612188 38.40654135 77.77646232 C35.87813196 75.24592562 33.34901631 72.71609663 30.8197422 70.18642426 C26.83653014 66.20220397 22.85589147 62.21542966 18.87718964 58.22670555 C17.42000847 56.76661536 15.96199397 55.30735626 14.50306702 53.84901047 C0.91631289 40.26561928 0.91631289 40.26561928 -5.10251808 33.09730339 C-12.81985712 24.65164923 -20.13447976 18.89410722 -31.85251808 17.72230339 C-45.93005624 18.38444327 -53.84724322 27.87817093 -63.11130714 37.29554558 C-64.69611498 38.88069123 -66.28246081 40.46430047 -67.87021828 42.04649162 C-72.162664 46.33267435 -76.43315737 50.64013389 -80.69984341 54.95193958 C-85.17656442 59.4688243 -89.67283989 63.96616131 -94.16691017 68.46577263 C-101.71004101 76.02360302 -109.24048163 83.59385306 -116.76169777 91.17347527 C-124.48661431 98.95832352 -132.22019015 106.7344112 -139.96482277 114.49964714 C-140.44186827 114.9779663 -140.91891378 115.45628547 -141.4104152 115.94909915 C-143.32846026 117.87221076 -145.24654484 119.79528294 -147.16468705 121.71829765 C-155.90415975 130.4802881 -164.63696982 139.24891853 -173.36814308 148.01917839 C-174.25067914 148.90562003 -175.1332152 149.79206167 -176.04249477 150.70536518 C-181.12341978 155.80969654 -186.20132822 160.91699821 -191.27495766 166.02858162 C-192.80959231 167.57408846 -194.34501677 169.11881152 -195.88130379 170.66267586 C-197.98470656 172.77686015 -200.08504879 174.89403922 -202.18461037 177.01203728 C-203.08827099 177.9184909 -203.08827099 177.9184909 -204.01018739 178.84325671 C-207.66145971 182.53483257 -211.11020059 186.34725342 -214.46657538 190.30952954 C-217.86132128 194.01934037 -221.35292512 196.56171371 -226.16501808 198.03480339 C-231.23702692 198.14271847 -234.12557912 196.96569358 -237.91501808 193.59730339 C-240.70526982 190.40844426 -241.34508815 188.62979684 -241.60251808 184.47230339 C-241.71079933 183.24640495 -241.71079933 183.24640495 -241.82126808 181.99574089 C-239.66251766 173.29034518 -228.53612316 165.41483871 -222.27941322 159.19903374 C-220.28340284 157.21593305 -218.29066103 155.22959765 -216.29868507 153.24244499 C-211.35351857 148.31055911 -206.40289339 143.38416452 -201.45243263 138.45759392 C-197.25837203 134.28334984 -193.06642445 130.10700483 -188.87719154 125.92791557 C-186.92567557 123.98282294 -184.97114423 122.04079673 -183.01645851 120.0988903 C-181.80606293 118.89213137 -180.59580984 117.68522949 -179.38572121 116.47816277 C-178.8514904 115.94909828 -178.3172596 115.4200338 -177.76683998 114.87493706 C-175.00338217 112.11185917 -172.37159064 109.28449929 -169.82230568 106.32205009 C-165.53297303 101.37178506 -160.92568368 96.75739306 -156.30271339 92.12049675 C-155.33414068 91.14564278 -154.36575202 90.17060592 -153.39753151 89.19540215 C-150.24542811 86.02246592 -147.08818094 82.85467375 -143.93064308 79.68714714 C-142.8365643 78.58901402 -141.74251696 77.49084957 -140.64850044 76.39265442 C-135.50873034 71.23388399 -130.3665864 66.07749436 -125.22149205 60.92403406 C-119.31053451 55.00330175 -113.40795693 49.07437642 -107.51233411 43.13837522 C-102.93400511 38.52978307 -98.34792829 33.92899208 -93.75609469 29.33385569 C-91.02284046 26.59826418 -88.29291215 23.85954764 -85.57118416 21.11248398 C-83.0091995 18.52703156 -80.43763224 15.95149242 -77.85879326 13.38285446 C-76.4789794 12.00376307 -75.10901172 10.61484156 -73.73951149 9.22550774 C-53.36355081 -10.98329379 -24.62799845 -16.01793145 0 0 Z " fill="#323232" transform="translate(290.10251808166504,31.90269660949707)"/>
<path d="M0 0 C3.89819059 1.9807879 6.38690047 4.96369464 8 9 C8.25053978 11.41642952 8.25053978 11.41642952 8.2515564 14.15921021 C8.25693924 15.20202652 8.26232208 16.24484283 8.26786804 17.31925964 C8.26168205 19.02738579 8.26168205 19.02738579 8.25537109 20.77001953 C8.25899155 21.97373703 8.262612 23.17745453 8.26634216 24.41764832 C8.27324021 27.03410973 8.27662435 29.65031375 8.27439499 32.26675797 C8.27155651 36.41170445 8.28593578 40.55648119 8.30337524 44.7013855 C8.35034477 56.48742098 8.37432469 68.27344539 8.38085938 80.05957031 C8.38462174 86.57069721 8.40274795 93.08163229 8.43595374 99.592677 C8.45278802 103.03371191 8.46203371 106.47439808 8.45301437 109.91547012 C8.44592396 113.76180983 8.46327002 117.60734912 8.48583984 121.45361328 C8.47766739 122.58021866 8.46949493 123.70682404 8.46107483 124.86756897 C8.53573002 132.04514248 9.8303726 137.56264144 13 144 C13.33449347 144.72898561 13.66898693 145.45797123 14.01361656 146.20904732 C15.30443646 148.55275795 16.55759681 148.98981486 19 150 C19.66 150.34160156 20.32 150.68320312 21 151.03515625 C21.66 151.37417969 22.32 151.71320313 23 152.0625 C23.66 152.40410156 24.32 152.74570312 25 153.09765625 C28.37672648 154.62114027 31.4583208 155.124921 35.14716434 155.13422108 C36.38205714 155.14090784 36.38205714 155.14090784 37.64189726 155.14772969 C38.54100638 155.14754533 39.44011549 155.14736097 40.36647034 155.14717102 C41.32584517 155.15084771 42.28522 155.1545244 43.2736668 155.1583125 C46.49698443 155.16934896 49.72026982 155.17319315 52.94360352 155.17700195 C55.25144045 155.18326669 57.55927638 155.1899135 59.86711121 155.19691467 C67.45436907 155.21795822 75.04162714 155.2283181 82.62890625 155.23828125 C85.24131722 155.24232885 87.85372809 155.24644577 90.46613884 155.25063133 C101.33419945 155.26750113 112.20225714 155.28213518 123.07032871 155.28938007 C125.88941512 155.29128985 128.70850152 155.2932102 131.52758789 155.29516602 C132.57854439 155.29589163 132.57854439 155.29589163 133.65073233 155.2966319 C144.99185134 155.30492608 156.33286467 155.33025303 167.67393757 155.36274669 C179.32793923 155.39586358 190.98188181 155.41350063 202.63593048 155.41702431 C209.17502175 155.41937367 215.71394599 155.42831942 222.25299263 155.45348549 C228.40815921 155.47679108 234.56304908 155.4809892 240.71824837 155.47072411 C242.97283347 155.47022923 245.2274323 155.47653538 247.48197556 155.49028015 C265.37451224 155.86352323 265.37451224 155.86352323 281.4375 148.75 C286.37383153 143.45247348 289.11747653 137.23664116 289.13803101 129.9788208 C289.14621101 128.42277634 289.14621101 128.42277634 289.15455627 126.83529663 C289.1555986 125.6975882 289.15664093 124.55987976 289.15771484 123.38769531 C289.16279556 122.18905853 289.16787628 120.99042175 289.17311096 119.75546265 C289.18382488 117.14778418 289.19282289 114.54015909 289.19923019 111.93247223 C289.2099211 107.8052598 289.23016977 103.67812904 289.25234985 99.55096436 C289.31423445 87.81461335 289.36824807 76.07826691 289.40136719 64.34179688 C289.41973831 57.86001716 289.4487062 51.3783741 289.4893719 44.8966949 C289.51040195 41.46866494 289.52589343 38.0408069 289.52817917 34.61270905 C289.53308573 30.78489669 289.55623913 26.95759207 289.58349609 23.12988281 C289.58048996 22.0002713 289.57748383 20.87065979 289.5743866 19.70681763 C289.63787011 13.70559393 290.02082502 9.26388443 293 4 C296.34989032 0.88938756 299.01273493 -0.26581613 303.5 -0.5 C307.97411596 -0.27403455 310.62833366 0.94944474 314 4 C317.86605645 9.66209303 317.42373332 15.35286649 317.38818359 21.94946289 C317.39606903 23.7482489 317.39606903 23.7482489 317.40411377 25.58337402 C317.41503549 28.86283612 317.41250036 32.14193338 317.40297651 35.42138982 C317.39534998 38.86796505 317.40243493 42.31451689 317.40713501 45.76109314 C317.41258902 51.55553521 317.4054157 57.34986249 317.39111328 63.14428711 C317.37484132 69.81300502 317.38003672 76.48144694 317.3965925 83.15015799 C317.4102823 88.8973798 317.41208911 94.6445193 317.40427649 100.39175218 C317.39963388 103.81435077 317.39887863 107.23682051 317.40888596 110.65941048 C317.41656915 114.4880502 317.40479731 118.31617373 317.38818359 122.14477539 C317.39425629 123.25745285 317.40032898 124.37013031 317.40658569 125.51652527 C317.28727656 140.48002119 313.08684191 151.95669202 304.8125 164.25 C292.53039804 176.25916636 279.79795584 182.32414364 262.70367432 182.26742554 C261.18703992 182.27422221 261.18703992 182.27422221 259.63976645 182.28115618 C256.26533117 182.29377582 252.89105778 182.29218137 249.51660156 182.29052734 C247.09157098 182.29651411 244.6665423 182.30332 242.24151611 182.31088257 C236.34570295 182.32670257 230.4499275 182.33299031 224.55409744 182.33410732 C219.75842808 182.33505972 214.96277184 182.33917952 210.16710663 182.34550858 C196.55144606 182.36311034 182.93581695 182.37234915 169.32014492 182.37084763 C168.58704593 182.37076772 167.85394693 182.3706878 167.09863281 182.37060547 C166.36463209 182.37052371 165.63063136 182.37044195 164.87438819 182.37035771 C152.98454041 182.36954517 141.09481942 182.38867751 129.2050083 182.4168822 C116.9779539 182.44565654 104.75096124 182.45941999 92.52387214 182.45769465 C85.66680273 182.4570323 78.80986624 182.46245608 71.95282745 182.48405075 C65.5013224 182.5042391 59.05002506 182.50354246 52.59850311 182.48901749 C50.23629852 182.48693099 47.87407629 182.49162071 45.51190186 182.5037384 C22.61370809 182.61355665 22.61370809 182.61355665 13 178 C12.1825745 177.62204473 11.365149 177.24408947 10.52295303 176.85468102 C-1.71242484 170.91810869 -11.6093412 159.59013041 -16.15481949 146.82132053 C-18.89550788 137.67255252 -19.29513563 128.18133289 -19.25878906 118.69555664 C-19.2622937 117.54262115 -19.26579834 116.38968567 -19.26940918 115.20181274 C-19.27812402 111.43786378 -19.27241655 107.6741067 -19.265625 103.91015625 C-19.26697395 101.27510034 -19.26891639 98.64004468 -19.27142334 96.00498962 C-19.2750423 90.50550291 -19.27031491 85.00607027 -19.26074219 79.5065918 C-19.24982358 73.16085226 -19.25341612 66.81524094 -19.264395 60.46950442 C-19.27457666 54.33722621 -19.27348517 48.20500463 -19.26763153 42.07272148 C-19.26629859 39.47359639 -19.2679303 36.87446801 -19.27259064 34.27534676 C-19.27766904 30.6497032 -19.26992858 27.02430678 -19.25878906 23.39868164 C-19.26283752 22.327939 -19.26688599 21.25719635 -19.27105713 20.15400696 C-19.23318383 13.50061544 -19.10355944 8.36650438 -14.5 3.1875 C-10.02091677 -0.73169782 -5.79068979 -0.79932834 0 0 Z " fill="#323232" transform="translate(106,267)"/>
</svg>
