<svg width="22" height="22" viewBox="0 0 22 22" fill="none" xmlns="http://www.w3.org/2000/svg">
<path d="M10.75 0C11.6161 0 12.3907 0.277033 13.2266 0.746094C14.0363 1.20052 14.9642 1.87129 16.1309 2.71484L17.6406 3.80664C18.5768 4.48348 19.3246 5.02401 19.8887 5.52441C20.4712 6.04124 20.9071 6.55701 21.1836 7.20508C21.4606 7.85463 21.5284 8.52046 21.4912 9.28809C21.4553 10.0289 21.3178 10.9226 21.1465 12.0371L20.8311 14.0889C20.5877 15.6725 20.394 16.9336 20.1094 17.916C19.815 18.9319 19.4004 19.7389 18.6592 20.3555C17.921 20.9694 17.041 21.2426 15.9668 21.373C14.922 21.4999 13.6041 21.5 11.9395 21.5H9.56152C7.89657 21.5 6.57814 21.5 5.5332 21.373C4.45919 21.2426 3.57991 20.9693 2.8418 20.3555C2.10055 19.7389 1.68599 18.932 1.3916 17.916C1.10691 16.9335 0.912308 15.6726 0.668945 14.0889L0.354492 12.0371C0.18321 10.9226 0.0456324 10.0289 0.00976562 9.28809C-0.0273988 8.52046 0.0393622 7.85463 0.316406 7.20508C0.592848 6.55695 1.02879 6.04127 1.61133 5.52441C2.17549 5.0239 2.92396 4.48368 3.86035 3.80664L5.36914 2.71484C6.53602 1.87114 7.46457 1.20055 8.27441 0.746094C9.11013 0.277155 9.8841 3.74427e-05 10.75 0ZM10.75 12.75C10.1978 12.7501 9.75 13.1978 9.75 13.75V16.75C9.75 17.3022 10.1978 17.7499 10.75 17.75C11.3023 17.75 11.75 17.3023 11.75 16.75V13.75C11.75 13.1977 11.3023 12.75 10.75 12.75Z" fill="#035F75"/>
</svg>
