<svg width="24" height="24" viewBox="0 0 24 24" fill="none" xmlns="http://www.w3.org/2000/svg">
<path d="M12 1.25C12.8661 1.25 13.6407 1.52703 14.4766 1.99609C15.2863 2.45052 16.2142 3.12129 17.3809 3.96484L18.8906 5.05664C19.8268 5.73348 20.5746 6.27401 21.1387 6.77441C21.7212 7.29123 22.1571 7.80701 22.4336 8.45508C22.7106 9.10463 22.7784 9.77046 22.7412 10.5381C22.7053 11.2789 22.5678 12.1726 22.3965 13.2871L22.0811 15.3389C21.8377 16.9225 21.644 18.1836 21.3594 19.166C21.065 20.1819 20.6504 20.9889 19.9092 21.6055C19.171 22.2194 18.291 22.4926 17.2168 22.623C16.172 22.7499 14.8541 22.75 13.1895 22.75H10.8115C9.14657 22.75 7.82814 22.75 6.7832 22.623C5.70919 22.4926 4.82991 22.2193 4.0918 21.6055C3.35055 20.9889 2.93599 20.182 2.6416 19.166C2.35691 18.1835 2.16231 16.9226 1.91895 15.3389L1.60449 13.2871C1.43321 12.1726 1.29563 11.2789 1.25977 10.5381C1.2226 9.77046 1.28936 9.10463 1.56641 8.45508C1.84285 7.80695 2.27879 7.29127 2.86133 6.77441C3.42549 6.2739 4.17396 5.73368 5.11035 5.05664L6.61914 3.96484C7.78602 3.12114 8.71457 2.45055 9.52441 1.99609C10.3601 1.52716 11.1341 1.25004 12 1.25ZM12 14C11.4478 14.0001 11 14.4478 11 15V18C11 18.5522 11.4478 18.9999 12 19C12.5523 19 13 18.5523 13 18V15C13 14.4477 12.5523 14 12 14Z" fill="#035F75"/>
</svg>
