<svg width="20" height="20" viewBox="0 0 20 20" fill="none" xmlns="http://www.w3.org/2000/svg">
<path d="M5 0.5H15C17.4858 0.5 19.5 2.50857 19.5 4.98047V11.96C19.5 14.4319 17.4858 16.4404 15 16.4404H13.5C13.0314 16.4404 12.5849 16.6647 12.3018 17.0371L12.3008 17.0391L10.8008 19.0293L10.7998 19.0303C10.5504 19.3627 10.2558 19.4902 10 19.4902C9.74421 19.4902 9.44959 19.3627 9.2002 19.0303L9.19922 19.0293L7.69922 17.0391L7.69531 17.0342C7.5525 16.8495 7.35348 16.7065 7.16113 16.6104C6.96958 16.5146 6.73469 16.4404 6.5 16.4404H5C2.51418 16.4404 0.5 14.4319 0.5 11.96V4.98047C0.5 2.50857 2.51418 0.5 5 0.5ZM6 7.5C5.17386 7.5 4.5 8.17386 4.5 9C4.5 9.82287 5.1606 10.5 6 10.5C6.8394 10.5 7.5 9.82287 7.5 9C7.5 8.17386 6.82614 7.5 6 7.5ZM10 7.5C9.17386 7.5 8.5 8.17386 8.5 9C8.5 9.82287 9.1606 10.5 10 10.5C10.8394 10.5 11.5 9.82287 11.5 9C11.5 8.17386 10.8261 7.5 10 7.5ZM14 7.5C13.1739 7.5 12.5 8.17386 12.5 9C12.5 9.82287 13.1606 10.5 14 10.5C14.8394 10.5 15.5 9.82287 15.5 9C15.5 8.17386 14.8261 7.5 14 7.5Z" fill="#035F75" stroke="#035F75"/>
</svg>
