<svg width="38" height="38" viewBox="0 0 38 38" fill="none" xmlns="http://www.w3.org/2000/svg">
<rect width="38" height="38" rx="19" fill="white"/>
<path d="M11.8169 16.7794L12.5669 16.7795V16.7794H11.8169ZM26.8667 16.7794H26.1167V16.7795L26.8667 16.7794ZM26.9097 24.6542L27.1895 25.3501V25.3501L26.9097 24.6542ZM11.7739 24.6542L12.0536 23.9584H12.0536L11.7739 24.6542ZM27.5562 19.694L26.9416 20.1239L26.9441 20.1274L27.5562 19.694ZM28.8119 21.894L28.071 22.0105L28.071 22.0105L28.8119 21.894ZM11.1274 19.694L11.7395 20.1274L11.742 20.1239L11.1274 19.694ZM9.87172 21.894L9.13081 21.7776H9.13081L9.87172 21.894ZM16.8035 27.9089C16.477 27.654 16.0057 27.7119 15.7507 28.0383C15.4958 28.3648 15.5537 28.8361 15.8801 29.0911L16.3418 28.5L16.8035 27.9089ZM22.8035 29.0911C23.1299 28.8361 23.1878 28.3648 22.9329 28.0383C22.6779 27.7119 22.2065 27.654 21.8801 27.9089L22.3418 28.5L22.8035 29.0911ZM26.9097 24.6542L26.63 23.9584C22.3467 25.6805 16.3369 25.6805 12.0536 23.9584L11.7739 24.6542L11.4941 25.3501C16.1364 27.2166 22.5472 27.2166 27.1895 25.3501L26.9097 24.6542ZM26.8667 16.7794H27.6167C27.6167 12.3216 23.8882 8.75 19.3418 8.75V9.5V10.25C23.1071 10.25 26.1167 13.1966 26.1167 16.7794H26.8667ZM11.8169 16.7794H12.5669C12.5669 13.1966 15.5765 10.25 19.3418 10.25V9.5V8.75C14.7954 8.75 11.0669 12.3216 11.0669 16.7794H11.8169ZM11.7739 24.6542L12.0536 23.9584C11.0328 23.5479 10.4796 22.8571 10.6126 22.0105L9.87172 21.894L9.13081 21.7776C8.83857 23.637 10.1868 24.8245 11.4941 25.3501L11.7739 24.6542ZM26.9097 24.6542L27.1895 25.3501C28.4968 24.8245 29.845 23.637 29.5528 21.7776L28.8119 21.894L28.071 22.0105C28.204 22.8571 27.6508 23.5479 26.63 23.9584L26.9097 24.6542ZM27.5562 19.694L28.1707 19.2641C27.6879 18.5739 27.6168 17.8074 27.6167 16.7793L26.8667 16.7794L26.1167 16.7795C26.1168 17.8321 26.1702 19.0212 26.9416 20.1239L27.5562 19.694ZM11.1274 19.694L11.742 20.1239C12.5134 19.0212 12.5668 17.8321 12.5669 16.7795L11.8169 16.7794L11.0669 16.7793C11.0668 17.8074 10.9957 18.5739 10.5128 19.2641L11.1274 19.694ZM11.1274 19.694L10.5153 19.2606C10.4037 19.4183 10.2837 19.5749 10.148 19.7556C10.0166 19.9304 9.87494 20.1221 9.74237 20.3237C9.47968 20.7232 9.22019 21.209 9.13081 21.7776L9.87172 21.894L10.6126 22.0105C10.6539 21.7476 10.7829 21.4714 10.9957 21.1478C11.1009 20.9879 11.2187 20.8277 11.3472 20.6565C11.4714 20.4913 11.6118 20.3078 11.7395 20.1274L11.1274 19.694ZM27.5562 19.694L26.9441 20.1274C27.0718 20.3078 27.2122 20.4913 27.3363 20.6565C27.4649 20.8277 27.5827 20.9879 27.6879 21.1478C27.9007 21.4714 28.0297 21.7476 28.071 22.0105L28.8119 21.894L29.5528 21.7776C29.4634 21.209 29.2039 20.7232 28.9412 20.3237C28.8087 20.1221 28.667 19.9304 28.5356 19.7556C28.3999 19.5749 28.2799 19.4183 28.1683 19.2606L27.5562 19.694ZM19.3418 29.5V28.75C18.3527 28.75 17.4647 28.4254 16.8035 27.9089L16.3418 28.5L15.8801 29.0911C16.8111 29.8183 18.0259 30.25 19.3418 30.25V29.5ZM22.3418 28.5L21.8801 27.9089C21.2189 28.4254 20.3309 28.75 19.3418 28.75V29.5V30.25C20.6577 30.25 21.8724 29.8183 22.8035 29.0911L22.3418 28.5Z" fill="#035F75"/>
</svg>
