<?xml version="1.0" encoding="UTF-8"?>
<svg version="1.1" xmlns="http://www.w3.org/2000/svg" width="512" height="512">
<path d="M0 0 C3.02438538 0.75597814 4.65615598 1.92778362 6.81700802 4.16315651 C8.05209103 5.39654762 8.05209103 5.39654762 9.31212521 6.65485573 C10.21350216 7.59732155 11.11487911 8.53978737 12.04357052 9.51081276 C13.11449744 10.57452566 14.18922434 11.63442293 15.26720333 12.69098854 C18.76256288 16.12399573 22.21698528 19.59638338 25.66857052 23.07331276 C26.87536511 24.28513702 28.08239491 25.4967271 29.28966427 26.70807838 C32.21034459 29.63963747 35.12784798 32.57432297 38.04357052 35.51081276 C46.16643646 33.50239454 53.96033177 30.8112753 61.78331661 27.86768532 C91.41513672 16.73346763 118.57423426 9.62806484 148.85607052 23.13581276 C151.13800816 24.19638609 153.40801392 25.27824422 155.67345333 26.37360573 C158.11448105 27.54483637 160.57195796 28.67350776 163.03575802 29.79596901 C172.48499703 34.1406319 181.63667845 38.8530695 190.66857052 44.01081276 C192.113811 44.83488625 192.113811 44.83488625 193.58824825 45.67560768 C197.26135645 47.77341654 200.93420965 49.87156316 204.59923458 51.98346901 C216.10909988 58.5657735 227.06290262 62.74896853 240.04357052 65.51081276 C240.08482052 64.29393776 240.12607052 63.07706276 240.16857052 61.82331276 C240.28839525 58.28848328 241.12486405 57.42498252 243.6378088 54.77179909 C247.13962089 52.07568319 249.98680487 51.93112752 254.41075802 52.02253151 C255.43013958 52.03314362 255.43013958 52.03314362 256.47011471 52.04397011 C258.62076513 52.07175129 260.76872008 52.13444388 262.91857052 52.19831276 C264.38467849 52.22341735 265.85082767 52.24622674 267.31700802 52.26667213 C270.89339075 52.32151988 274.46821716 52.40767146 278.04357052 52.51081276 C278.02399288 51.37192604 278.02399288 51.37192604 278.00401974 50.21003151 C277.99386837 49.21616432 277.983717 48.22229713 277.97325802 47.19831276 C277.95368038 45.71911354 277.95368038 45.71911354 277.93370724 44.21003151 C278.07355604 40.77410177 278.68361431 39.02809938 281.04357052 36.51081276 C285.28940218 34.01747015 288.39993373 33.13360159 293.30504513 33.12262917 C294.52328472 33.11317268 295.74152431 33.1037162 296.99668026 33.09397316 C298.95155109 33.1030822 298.95155109 33.1030822 300.94591427 33.11237526 C302.31062634 33.11035149 303.67533735 33.10743754 305.04004574 33.10367775 C307.89378357 33.09926708 310.74723873 33.10564344 313.60094357 33.11969948 C317.24357031 33.13677477 320.88553299 33.12695338 324.5281353 33.10898209 C327.34473245 33.098096 330.16117448 33.10161281 332.97777653 33.10936546 C334.96902686 33.11231688 336.96028341 33.10326606 338.95151424 33.09397316 C350.54485093 33.1837332 350.54485093 33.1837332 356.04357052 36.51081276 C358.29638407 39.89003309 358.29919688 41.04216339 358.31772518 45.00101662 C358.32770031 46.14223976 358.33767544 47.28346291 358.34795284 48.45926857 C358.34861752 49.71232796 358.34928219 50.96538734 358.349967 52.25641823 C358.35829052 53.57531044 358.36661404 54.89420265 358.37518978 56.25306129 C358.39714734 59.8729471 358.40593533 63.49274843 358.41101623 67.11269331 C358.41465832 69.37430735 358.4208976 71.63589921 358.42801762 73.89750481 C358.45251649 81.78766033 358.46556495 89.67775006 358.46910763 97.56794167 C358.47274327 104.92246441 358.50263918 112.27656991 358.54451221 119.63096511 C358.57920303 125.9452911 358.59465585 132.25947874 358.59535366 138.57389939 C358.59614691 142.34517831 358.60490635 146.1160323 358.63335133 149.88721275 C358.65951194 153.43490305 358.66174944 156.98181553 358.64569569 160.52955818 C358.64301426 162.45018835 358.66507874 164.37080323 358.68788815 166.29129982 C358.61760879 174.54649681 358.61760879 174.54649681 356.09017086 178.79229164 C351.84824705 181.18506878 348.49225513 181.1446449 343.69859982 181.01154518 C342.29763561 181.00317635 342.29763561 181.00317635 340.8683691 180.99463844 C338.84395395 180.98009283 336.81959478 180.95445875 334.79543781 180.91900635 C331.58737677 180.86577689 328.38090528 180.8479046 325.17243099 180.84023476 C316.0527384 180.81318517 306.93413119 180.73121535 297.81529903 180.60383034 C292.23305658 180.52832476 286.65227575 180.50160101 281.06955051 180.50455093 C278.94639959 180.49575172 276.82323791 180.4681495 274.70058918 180.42114258 C263.26257775 179.72612024 263.26257775 179.72612024 253.00382137 183.70701027 C250.96996727 186.22792443 249.49513291 188.62671445 248.04357052 191.51081276 C235.74668397 205.67682606 218.93660462 216.32690296 200.04357052 218.51081276 C198.84944011 218.49740852 197.6553097 218.48400429 196.42499352 218.47019386 C189.25071011 218.39228542 184.00090955 218.66828047 178.30774593 223.4966526 C176.50208283 225.28345462 174.73657612 227.11147405 173.00670528 228.97175026 C172.01736102 229.97846843 171.02457902 230.98181773 170.0286932 231.9820652 C167.90856068 234.1257093 165.81405383 236.29056575 163.73699284 238.47596169 C160.4493977 241.93437866 157.10783452 245.33725516 153.75766659 248.73493385 C148.46634341 254.11384242 143.21111533 259.52643431 137.97111791 264.95531464 C128.58222487 274.68238859 119.15406188 284.37090338 109.68100303 294.01603317 C106.36213177 297.39853728 103.0666421 300.80181075 99.78849423 304.22377968 C97.74535288 306.34911796 95.68576018 308.4579516 93.62179279 310.56305122 C92.22001609 312.00328913 90.83894424 313.46358941 89.45867062 314.92444801 C84.95870541 319.48112165 81.69129257 322.5143907 75.14443016 322.91764259 C68.81272845 321.69151349 64.52374197 316.28486325 60.15996456 311.91481972 C59.37235595 311.13385892 58.58474734 310.35289811 57.7732718 309.54827183 C55.1329898 306.92768933 52.49991361 304.29998611 49.86681271 301.67218971 C47.97647305 299.79274433 46.08576548 297.91367518 44.19466305 296.03499794 C38.52151888 290.39655509 32.85791307 284.74857724 27.19520175 279.09965995 C24.52722727 276.43865201 21.85816029 273.77874044 19.18917751 271.1187439 C10.31684652 262.27560486 1.44671469 253.43027043 -7.41634846 244.57784176 C-7.98320265 244.01167826 -8.55005685 243.44551476 -9.13408844 242.86219479 C-9.7022825 242.29469275 -10.27047655 241.72719071 -10.85588861 241.14249164 C-12.00723637 239.99255586 -13.15858854 238.8426245 -14.30994511 237.69269753 C-14.88105332 237.12229448 -15.45216154 236.55189143 -16.04057607 235.96420344 C-25.30029124 226.71674557 -34.57518292 217.48466874 -43.85659257 208.25899027 C-53.38796755 198.78438402 -62.90615028 189.29668901 -72.41136527 179.7958371 C-77.74760182 174.46268289 -83.08940936 169.13538421 -88.44590855 163.82257462 C-93.0055139 159.30005577 -97.5529969 154.76577622 -102.085094 150.21568427 C-104.39750292 147.89481838 -106.71702742 145.58196182 -109.04843616 143.2801609 C-111.5756847 140.78319041 -114.0804788 138.26565709 -116.58075809 135.74172401 C-117.32149673 135.02001103 -118.06223536 134.29829805 -118.82542062 133.55471498 C-121.96106273 130.34783037 -124.305782 127.81379766 -125.10490894 123.30888081 C-124.85579746 116.93667052 -121.66487738 113.9699555 -117.33507633 109.58165932 C-116.87404375 109.11186222 -116.41301116 108.64206513 -115.93800789 108.15803176 C-114.39996937 106.59339603 -112.85493665 105.03586784 -111.30970097 103.47834206 C-110.20199027 102.35481596 -109.09464374 101.23093071 -107.98763371 100.10671425 C-104.35849042 96.4253089 -100.71858732 92.75464141 -97.07752323 89.08503151 C-95.82247836 87.81926199 -94.56744875 86.55347735 -93.3124342 85.28767776 C-88.0916676 80.02368961 -82.86803065 74.76257776 -77.63689423 69.50889301 C-70.14814768 61.9876482 -62.67688939 54.44994866 -55.22901958 46.88821667 C-49.98523086 41.56701929 -44.72240375 36.26513678 -39.44506031 30.97721797 C-36.29554511 27.82040007 -33.15492804 24.65578862 -30.03436947 21.47032166 C-27.09867525 18.47444183 -24.14007124 15.5032442 -21.16239071 12.54911041 C-20.0757571 11.46291802 -18.99759839 10.3681681 -17.92890644 9.26431847 C-8.17921116 -0.78831866 -8.17921116 -0.78831866 0 0 Z M-6.01941776 28.34675026 C-6.84683475 29.18464088 -7.67425175 30.02253151 -8.52674198 30.88581276 C-9.42264042 31.78815651 -10.31853886 32.69050026 -11.24158573 33.62018776 C-12.18830847 34.58362316 -13.13492164 35.54716624 -14.08142948 36.51081276 C-15.0353975 37.47480893 -15.989819 38.43835656 -16.94471073 39.40143776 C-19.28646123 41.76684231 -21.62343451 44.13677728 -23.95642948 46.51081276 C-20.56126243 51.60356334 -14.72033894 52.21803219 -8.95642948 53.51081276 C0.39762268 54.71279656 9.61026112 52.72746746 18.04357052 48.51081276 C16.56127601 45.07476095 14.61405312 42.82379685 11.98107052 40.18268776 C11.18442989 39.38346901 10.38778927 38.58425026 9.56700802 37.76081276 C8.73427364 36.93581276 7.90153927 36.11081276 7.04357052 35.26081276 C6.21083614 34.42034401 5.37810177 33.57987526 4.52013302 32.71393776 C3.72349239 31.91987526 2.92685177 31.12581276 2.10607052 30.30768776 C1.37517208 29.57904518 0.64427364 28.8504026 -0.10877323 28.09967995 C-2.793452 25.79102648 -3.38481048 26.00210567 -6.01941776 28.34675026 Z M78.98107052 43.94831276 C76.96955546 44.7183763 74.95783767 45.48791048 72.94591427 46.25690651 C71.97637814 46.62928444 71.006842 47.00166237 70.00792599 47.38532448 C65.37188794 49.14550694 60.70970707 50.832334 56.04357052 52.51081276 C65.06916185 71.59157803 85.511341 88.94327991 104.94446278 96.11048508 C119.06258279 101.136412 133.5685239 104.95479172 148.06206417 108.72376442 C152.11107671 109.79260957 156.12963778 110.92636397 160.12560177 112.17878151 C161.22750851 112.51546852 162.32941525 112.85215553 163.4647131 113.19904518 C166.64779049 114.81815669 167.59219375 116.2844766 169.04357052 119.51081276 C169.55383372 123.59291834 169.4535683 125.75641684 167.48107052 129.38581276 C164.39267014 132.07826437 162.04144269 132.65652415 158.04357052 132.51081276 C153.66040195 131.55522732 149.44675457 130.14566697 145.19200802 128.73346901 C143.91296726 128.3210444 142.63344403 127.9101135 141.35347652 127.50057411 C138.64098002 126.6305689 135.93118129 125.75278883 133.22313595 124.86902809 C129.0857167 123.52090587 124.93977514 122.20079743 120.79064083 120.88923073 C120.10533165 120.67255556 119.42002247 120.45588039 118.71394634 120.23263931 C117.32465319 119.79364385 115.93530347 119.3548274 114.54589748 118.91618919 C111.75786308 118.03598324 108.97020057 117.15460306 106.18257427 116.27310562 C104.78641517 115.83169525 103.39018774 115.39050097 101.99389172 114.94952393 C98.43508469 113.82520687 94.87762488 112.69688191 91.32237911 111.56134987 C87.79036063 110.43348068 84.25536754 109.31543384 80.71814251 108.2040062 C79.39423708 107.78612706 78.07142686 107.3647596 76.74982738 106.93964386 C74.92053506 106.35175191 73.08685667 105.77756153 71.25304317 105.20392799 C70.21910427 104.87577599 69.18516537 104.54762398 68.11989498 104.20952797 C62.01769791 102.82355651 57.38153411 103.22092014 51.97325802 106.16706276 C47.79951176 109.07347716 44.65236404 112.68443221 43.04357052 117.51081276 C42.41017168 124.58782666 42.96131198 129.49125923 47.37950802 135.25300026 C55.29738935 144.25234831 68.77614923 146.88554643 79.83343792 150.51653481 C82.24909253 151.31083288 84.66220024 152.11246888 87.07472897 152.91620827 C93.92417089 155.19750226 100.77592988 157.47158964 107.63390255 159.72712135 C111.8532003 161.11539142 116.06794885 162.51677462 120.28010082 163.92656898 C121.87556846 164.45774638 123.47268317 164.98400436 125.07147503 165.50509071 C127.30526236 166.23358635 129.53287395 166.97867942 131.75987911 167.72760963 C132.41140957 167.93554649 133.06294003 168.14348335 133.73421383 168.35772133 C140.01004673 170.50575504 144.21692516 174.21490996 148.29357052 179.38581276 C158.62832758 191.36781276 173.53948474 196.41396313 188.93810177 197.76471901 C203.41682448 198.35297642 215.53585668 192.49412487 226.23107052 183.13581276 C235.65547482 174.9296247 235.65547482 174.9296247 240.28407955 164.07497597 C240.28988061 162.62821856 240.28455413 161.18139166 240.2706213 159.73468971 C240.27091335 158.94421242 240.27120541 158.15373512 240.27150631 157.33930397 C240.27011266 154.72578909 240.2545499 152.1125591 240.23888302 149.49909401 C240.23515301 147.68734327 240.23230598 145.87559052 240.23030758 144.06383705 C240.22267016 139.29460013 240.20302072 134.52548496 240.18089962 129.75629616 C240.16044355 124.88997991 240.15130637 120.02364399 240.14122677 115.15729713 C240.11977494 105.60841551 240.08563766 96.05962426 240.04357052 86.51081276 C239.19124088 86.34771111 239.19124088 86.34771111 238.32169247 86.18131447 C235.71108812 85.67885839 233.10195783 85.16910746 230.49278927 84.65925026 C229.59910641 84.48836891 228.70542355 84.31748756 227.78465939 84.14142799 C212.48695362 81.13445628 199.94642366 73.82175326 186.51622677 66.17096901 C151.03242656 44.92727245 151.03242656 44.92727245 111.48107052 36.13581276 C110.49022457 36.11418068 110.49022457 36.11418068 109.47936153 36.09211159 C98.83308546 36.19985953 88.77986788 40.14437263 78.98107052 43.94831276 Z M299.04357052 54.51081276 C299.04357052 89.49081276 299.04357052 124.47081276 299.04357052 160.51081276 C311.91357052 160.51081276 324.78357052 160.51081276 338.04357052 160.51081276 C338.04357052 125.53081276 338.04357052 90.55081276 338.04357052 54.51081276 C325.17357052 54.51081276 312.30357052 54.51081276 299.04357052 54.51081276 Z M-43.22474003 65.43854713 C-44.08881474 66.31833229 -44.95288944 67.19811745 -45.84314823 68.10456276 C-46.30502033 68.5706797 -46.76689243 69.03679665 -47.24276066 69.51703835 C-48.71699901 71.00807566 -50.18047036 72.50920148 -51.64392948 74.01081276 C-52.64128476 75.0232133 -53.63932365 76.03494087 -54.63807011 77.04596901 C-57.08550513 79.52648905 -59.52338835 82.01616365 -61.95642948 84.51081276 C-61.40213261 85.64518776 -60.84783573 86.77956276 -60.27674198 87.94831276 C-59.54457963 89.46895765 -58.81283081 90.98980169 -58.08142948 92.51081276 C-57.71662479 93.25460182 -57.35182011 93.99839088 -56.97596073 94.76471901 C-49.93783806 109.48079368 -49.11706874 126.4519755 -54.06580448 141.99518776 C-56.33861787 148.08408288 -59.03605432 153.67006244 -61.95642948 159.51081276 C-28.95642948 192.51081276 4.04357052 225.51081276 38.04357052 259.51081276 C42.13567973 258.14677635 44.99780587 257.08766572 48.60607052 255.07331276 C62.63510823 248.02752562 79.7857693 247.46074421 94.86778927 251.37018776 C99.87122717 253.16724049 104.43214683 255.65573527 109.04747677 258.28034401 C111.84291473 259.81291725 111.84291473 259.81291725 113.94664669 258.85968971 C116.50207396 257.21587371 118.45560384 255.32294115 120.59044552 253.15925026 C121.43478146 252.30846901 122.27911739 251.45768776 123.14903927 250.58112526 C124.02173458 249.69167213 124.89442989 248.80221901 125.79357052 247.88581276 C126.68173458 246.98862526 127.56989864 246.09143776 128.48497677 245.16706276 C130.67574021 242.95274272 132.86169815 240.73388841 135.04357052 238.51081276 C133.41222753 234.35869433 131.49150057 230.51233943 129.35997677 226.59675026 C125.48424785 217.51121364 124.63378579 209.13072474 124.85607052 199.32331276 C124.91794552 195.42518776 124.97982052 191.52706276 125.04357052 187.51081276 C114.15357052 183.88081276 103.26357052 180.25081276 92.04357052 176.51081276 C90.06357052 181.13081276 88.08357052 185.75081276 86.04357052 190.51081276 C83.75796409 193.79377472 81.6862863 196.59330131 79.04357052 199.51081276 C78.52278927 200.12311745 78.00200802 200.73542213 77.46544552 201.36628151 C70.56454476 208.95392239 60.94298558 214.04070919 51.04357052 216.51081276 C49.95689083 216.78344948 49.95689083 216.78344948 48.84825802 217.06159401 C31.77518963 219.79613839 15.18107691 216.67778544 1.04357052 206.51081276 C-10.6869874 196.62388644 -17.98079238 183.85223964 -19.95642948 168.51081276 C-21.29587785 151.16385851 -16.86546519 136.42673808 -6.14392948 122.69831276 C1.00754802 114.90187442 11.40607659 108.81501372 21.66857052 106.38581276 C27.01537321 104.75933782 28.90842924 100.77903703 31.88341427 96.30768776 C37.37010753 89.20375941 45.61554409 85.85960701 54.04357052 83.51081276 C50.06636775 78.62453508 45.79505158 74.03881795 41.41857052 69.51081276 C40.85629757 68.91051247 40.29402462 68.31021217 39.7147131 67.69172096 C37.91162585 65.79386545 37.91162585 65.79386545 35.04357052 63.51081276 C31.41691089 63.98213808 28.4134222 65.75934097 25.16857052 67.38581276 C8.61586098 75.07958613 -8.86024131 75.60058835 -25.95642948 69.51081276 C-29.26380834 68.02881786 -32.43602211 66.44632252 -35.60096073 64.68268776 C-39.0234966 62.9799336 -40.28078018 62.93660902 -43.22474003 65.43854713 Z M261.04357052 73.51081276 C261.04357052 102.22081276 261.04357052 130.93081276 261.04357052 160.51081276 C266.65357052 160.51081276 272.26357052 160.51081276 278.04357052 160.51081276 C278.04357052 131.80081276 278.04357052 103.09081276 278.04357052 73.51081276 C272.43357052 73.51081276 266.82357052 73.51081276 261.04357052 73.51081276 Z M-79.99768925 102.43854713 C-80.87223759 103.31833229 -81.74678593 104.19811745 -82.64783573 105.10456276 C-83.11253773 105.5706797 -83.57723972 106.03679665 -84.0560236 106.51703835 C-85.5460113 108.01264285 -87.03249283 109.51167971 -88.51892948 111.01081276 C-89.52586263 112.02275874 -90.53302114 113.03448053 -91.54041386 114.04596901 C-94.01504353 116.53164997 -96.48653917 119.0204215 -98.95642948 121.51081276 C-94.57200422 126.76256202 -89.94800856 131.64303749 -85.08142948 136.44831276 C-84.39307011 137.13216042 -83.70471073 137.81600807 -82.99549198 138.52057838 C-81.31809437 140.1863274 -79.63839157 141.84967496 -77.95642948 143.51081276 C-71.75272225 135.608884 -70.36632361 126.43533635 -71.20642948 116.57721901 C-72.14039857 110.56479298 -73.96516547 105.79537919 -76.95642948 100.51081276 C-78.30319875 100.39637933 -78.30319875 100.39637933 -79.99768925 102.43854713 Z M10.10216427 136.37409401 C2.69012426 144.36244815 -0.3276893 153.02540076 -0.16736698 163.83112526 C0.63173277 173.98265179 5.41305763 182.27681595 12.66857052 189.26081276 C21.05921048 196.0653204 29.78572926 198.33344057 40.49278927 197.92878151 C51.22533645 196.66543437 59.96407664 190.72184625 66.72325802 182.44831276 C69.24294485 178.75078416 72.04357052 174.0805501 72.04357052 169.51081276 C71.33337765 169.26959694 70.62318478 169.02838112 69.89147091 168.77985573 C66.62492795 167.66185755 63.36562667 166.52401256 60.10607052 165.38581276 C58.43061153 164.8173362 58.43061153 164.8173362 56.72130489 164.23737526 C49.76533402 161.78952627 43.92403924 158.96316765 38.04357052 154.51081276 C37.10642208 153.83147682 36.16927364 153.15214088 35.20372677 152.45221901 C28.27575211 146.2258114 24.75432132 137.21552185 22.04357052 128.51081276 C17.47597815 128.51081276 13.23680711 133.36559374 10.10216427 136.37409401 Z M145.04357052 204.51081276 C145.47657816 211.33068305 146.95144876 216.42724297 150.04357052 222.51081276 C151.15223037 221.59958549 152.2552927 220.68154617 153.35607052 219.76081276 C153.97095333 219.25034401 154.58583614 218.73987526 155.21935177 218.21393776 C157.10289381 216.45542742 158.55930708 214.6116164 160.04357052 212.51081276 C157.73253442 211.17488479 155.41985297 209.84196845 153.10607052 208.51081276 C152.44671505 208.12925026 151.78735958 207.74768776 151.10802364 207.35456276 C148.2458855 205.38572229 148.2458855 205.38572229 145.04357052 204.51081276 Z M55.04357052 274.51081276 C56.53010558 277.97711111 58.50079403 280.20103312 61.17638302 282.83893776 C61.98204708 283.63815651 62.78771114 284.43737526 63.61778927 285.26081276 C64.45954708 286.08581276 65.30130489 286.91081276 66.16857052 287.76081276 C67.4428088 289.02151588 67.4428088 289.02151588 68.74278927 290.30768776 C70.83861975 292.37996959 72.93897765 294.44743669 75.04357052 296.51081276 C78.47962233 295.02851825 80.73058643 293.08129536 83.37169552 290.44831276 C84.17091427 289.65167213 84.97013302 288.85503151 85.79357052 288.03425026 C86.61857052 287.20151588 87.44357052 286.36878151 88.29357052 285.51081276 C89.55427364 284.2617112 89.55427364 284.2617112 90.84044552 282.98737526 C91.63450802 282.19073463 92.42857052 281.39409401 93.24669552 280.57331276 C93.9753381 279.84241432 94.70398067 279.11151588 95.45470333 278.35846901 C97.26090773 276.66422134 97.26090773 276.66422134 97.04357052 274.51081276 C95.65079035 273.85842118 94.2541784 273.21420724 92.85607052 272.57331276 C92.07876583 272.21366432 91.30146114 271.85401588 90.50060177 271.48346901 C79.02604625 266.9410774 65.74668417 268.94131923 55.04357052 274.51081276 Z " fill="#000000" transform="translate(153.95642948150635,-0.5108127593994141)"/>
<path d="M0 0 C0.91652344 0.75603516 0.91652344 0.75603516 1.8515625 1.52734375 C4.45288804 3.70249468 6.83101318 5.80177558 9.03759766 8.39013672 C12.82070005 11.72303309 16.38022341 12.87027533 21.13671875 14.34765625 C22.03708862 14.64111938 22.9374585 14.93458252 23.8651123 15.23693848 C25.79814054 15.86539808 27.73335841 16.48715517 29.67050171 17.10281372 C33.73947982 18.3971275 37.79664557 19.72668194 41.85481262 21.0544281 C43.91383676 21.72775112 45.97340023 22.39942706 48.03349304 23.06947327 C56.73167363 25.89944756 65.40239317 28.80085409 74.03848267 31.81515503 C75.45141868 32.30651943 76.86591962 32.79341077 78.28207397 33.27542114 C93.47762217 38.44958327 106.36677305 45.22495556 114 60 C114.33 60.99 114.66 61.98 115 63 C119.81980718 62.39364786 124.37071698 61.45902526 129.04931641 60.15820312 C129.7153035 59.97434555 130.38129059 59.79048798 131.06745911 59.60105896 C133.24662375 58.99845296 135.42405968 58.3898307 137.6015625 57.78125 C139.12645774 57.35866052 140.65147405 56.9365077 142.17660522 56.51477051 C146.17710022 55.40752961 150.17622335 54.29541822 154.17498779 53.1819458 C160.58116398 51.39882613 166.98919771 49.62240637 173.39762497 47.84739685 C175.62989591 47.22822686 177.86145011 46.60652532 180.09292603 45.98449707 C181.46508842 45.60352561 182.83726963 45.22262194 184.20947266 44.84179688 C185.40303375 44.50950073 186.59659485 44.17720459 187.82632446 43.83483887 C199.95024631 40.64562779 212.55435688 40.48217503 224 46 C232.96679665 51.27369227 239.44972373 59.24006449 243 69 C246.08517654 81.60389656 244.93236069 91.73242194 238.8203125 103.14453125 C231.13715615 115.1968645 218.72374284 121.89386756 205.5390625 126.390625 C204.45629028 126.77278168 203.37351807 127.15493835 202.25793457 127.54867554 C198.71791927 128.79510276 195.17157119 130.02236586 191.625 131.25 C189.1190869 132.1291979 186.61364048 133.00960646 184.10888672 133.89208984 C179.59168972 135.48239969 175.07311706 137.06866192 170.55256844 138.64941978 C159.47529208 142.5239815 148.42865757 146.48288354 137.38540649 150.45321655 C134.12820834 151.62384693 130.87026044 152.79236598 127.61206055 153.96020508 C116.40016785 157.97942201 105.1923504 162.0098066 93.98828125 166.05078125 C92.84389587 166.46338196 91.6995105 166.87598267 90.52044678 167.30108643 C85.05802572 169.27059837 79.59611775 171.24150641 74.13525391 173.21533203 C43.63287354 184.22937329 16.69343558 189.12184904 -13.79296875 174.97387695 C-16.53659905 173.66510097 -19.26914623 172.33522642 -22 171 C-23.0725 170.48083008 -24.145 169.96166016 -25.25 169.42675781 C-38.86004346 162.81892706 -52.26700604 155.93331091 -65.36645508 148.35058594 C-76.54597936 141.70489768 -76.54597936 141.70489768 -88.6875 137.25 C-89.595 137.02183594 -90.5025 136.79367187 -91.4375 136.55859375 C-94.6220359 135.86440376 -97.76121931 135.35986452 -101 135 C-101.0928125 136.5778125 -101.0928125 136.5778125 -101.1875 138.1875 C-102.17023415 142.79879103 -103.32460181 144.11203334 -107 147 C-110.50512695 147.56762695 -110.50512695 147.56762695 -114.48828125 147.48828125 C-115.5430793 147.47766914 -115.5430793 147.47766914 -116.6191864 147.46684265 C-118.85140227 147.43899212 -121.08105077 147.3762832 -123.3125 147.3125 C-124.83134381 147.28740451 -126.3502272 147.26459352 -127.86914062 147.24414062 C-131.58025248 147.18920007 -135.28987541 147.10299739 -139 147 C-138.97244629 147.82346924 -138.94489258 148.64693848 -138.91650391 149.49536133 C-138.89507324 150.5758374 -138.87364258 151.65631348 -138.8515625 152.76953125 C-138.81023193 154.37598511 -138.81023193 154.37598511 -138.76806641 156.01489258 C-139.11898913 160.5314527 -140.66089268 162.05840546 -144 165 C-146.78733895 166.39366947 -149.08771724 166.14266411 -152.20629883 166.16113281 C-153.51137894 166.17074036 -154.81645905 166.1803479 -156.16108704 166.19024658 C-157.59306667 166.19509481 -159.02504832 166.19937358 -160.45703125 166.203125 C-161.92193097 166.20887694 -163.38683067 166.21463467 -164.85173035 166.22039795 C-167.9259781 166.23090971 -171.00019969 166.23675094 -174.07446289 166.24023438 C-178.00878489 166.24571379 -181.94275986 166.26972889 -185.87697315 166.29820633 C-188.90448506 166.31685668 -191.93191388 166.32203962 -194.95947838 166.32357025 C-196.40952129 166.32659287 -197.85956287 166.33460826 -199.30954933 166.34775543 C-201.34146881 166.36486099 -203.37353139 166.36108435 -205.40551758 166.35644531 C-206.56086502 166.36009094 -207.71621246 166.36373657 -208.90657043 166.36749268 C-212.38129035 165.95470354 -214.21929384 165.09255228 -217 163 C-219.24844818 159.62732772 -219.2540092 158.49568834 -219.26742554 154.54776001 C-219.27595551 153.41495102 -219.28448547 152.28214203 -219.29327393 151.11500549 C-219.29236755 149.87129684 -219.29146118 148.6275882 -219.29052734 147.34619141 C-219.30060318 145.38248344 -219.30060318 145.38248344 -219.31088257 143.37910461 C-219.32856316 139.78606728 -219.33323882 136.19312517 -219.33451414 132.60004854 C-219.3364129 129.60056786 -219.34377022 126.60110938 -219.35085833 123.60163724 C-219.36714792 116.52445246 -219.37202679 109.44731856 -219.37060547 102.37011719 C-219.36940405 95.07018412 -219.39050439 87.77054671 -219.4220928 80.47068846 C-219.44824771 74.20307163 -219.45897309 67.9355514 -219.45769465 61.66788042 C-219.45718475 57.92461596 -219.46288274 54.18161418 -219.48405075 50.43840408 C-219.50701813 46.26292984 -219.49791713 42.08811755 -219.48583984 37.91259766 C-219.49707886 36.67293747 -219.50831787 35.43327728 -219.51989746 34.15605164 C-219.51150848 33.017603 -219.50311951 31.87915436 -219.49447632 30.70620728 C-219.49556585 29.71917627 -219.49665539 28.73214527 -219.49777794 27.71520424 C-218.85916153 24.2317755 -217.41325693 22.54205816 -215 20 C-211.63488168 18.31744084 -207.83159156 18.93888084 -204.13500977 19.00097656 C-202.22962564 19.02374708 -200.32423477 19.04595754 -198.4188385 19.06768799 C-196.89775828 19.08686153 -196.89775828 19.08686153 -195.34594917 19.10642242 C-188.84926336 19.1768616 -182.35214 19.1832332 -175.85513401 19.20027542 C-170.14772618 19.21889772 -164.44232118 19.26065836 -158.7355957 19.35302734 C-153.21470748 19.44112691 -147.69676676 19.46516176 -142.17524529 19.44664764 C-140.0768907 19.45093346 -137.97844672 19.47807739 -135.88070869 19.5291214 C-123.79797587 20.21522364 -123.79797587 20.21522364 -113.36471558 15.17736816 C-110.49392018 12.03823479 -108.30447054 8.56545192 -106 5 C-77.81926573 -24.6423582 -30.91685097 -26.63493968 0 0 Z M-91.25390625 19.8984375 C-92.1789032 20.92368254 -93.09337219 21.95847574 -94 23 C-94.58587891 23.60493286 -95.17175781 24.20986572 -95.77539062 24.83312988 C-102.7383843 33.06866752 -101.90233193 41.48869736 -101.68359375 51.6953125 C-101.67051671 53.49704046 -101.6605625 55.29879353 -101.65357971 57.10055542 C-101.62701925 61.81280833 -101.55840382 66.52351932 -101.48065186 71.23516846 C-101.40868058 76.05500435 -101.37699627 80.87509263 -101.34179688 85.6953125 C-101.26701848 95.13088095 -101.14775354 104.56531161 -101 114 C-99.70529785 114.19190918 -98.4105957 114.38381836 -97.07666016 114.58154297 C-95.35575099 114.84313993 -93.63488748 115.10503737 -91.9140625 115.3671875 C-91.06336182 115.49246826 -90.21266113 115.61774902 -89.33618164 115.74682617 C-72.85197833 118.28102418 -58.67770218 127.19375881 -44.375 135.3125 C-28.37304986 144.38531332 -12.07704698 153.11512832 5 160 C5.9178125 160.38027344 6.835625 160.76054687 7.78125 161.15234375 C13.99362779 163.28539119 20.36748669 163.32820351 26.875 163.4375 C28.22126465 163.47133789 28.22126465 163.47133789 29.59472656 163.50585938 C37.26519113 163.47821806 43.82181133 161.53639472 51 159 C51.84369141 158.70511688 52.68738281 158.41023376 53.55664062 158.10641479 C61.15669249 155.44529466 68.73480563 152.72398428 76.3125 150 C78.79644473 149.10940832 81.28049623 148.21911436 83.76464844 147.32910156 C87.62452446 145.94612601 91.48430699 144.5628927 95.34359741 143.17828369 C105.27897481 139.6139931 115.22011214 136.06602865 125.16339111 132.52383423 C134.44639965 129.21635866 143.72556486 125.89824002 153.00286865 122.57479858 C159.60036875 120.21245166 166.20224169 117.86291484 172.80801392 115.52380371 C176.89665669 114.07343777 180.98165804 112.61302184 185.0657959 111.15002441 C186.95055404 110.47727992 188.83682675 109.80876059 190.72473145 109.14489746 C209.08224951 102.90566506 209.08224951 102.90566506 222.10546875 89.1171875 C224.02284952 84.57910726 223.74503299 79.35994233 222.27734375 74.7109375 C219.88351498 69.53561538 216.90171765 66.31730877 211.63183594 63.9249115 C201.22781581 60.26860538 189.83397802 64.87426304 179.75 67.77734375 C178.00205375 68.26941988 176.25375598 68.76024887 174.50512695 69.24989319 C169.9324872 70.53397858 165.36489798 71.83519237 160.79815674 73.14007568 C156.13801733 74.46813155 151.47305799 75.77902947 146.80859375 77.09179688 C140.00926532 79.00824468 133.2116172 80.93044861 126.41796875 82.86694336 C125.70732773 83.06906433 124.99668671 83.2711853 124.26451111 83.47943115 C121.49002598 84.2718447 118.73782431 85.0873919 116 86 C115.00010754 88.25826801 115.00010754 88.25826801 114.25 91 C110.74871474 101.16162488 104.33352456 107.78960581 95 113 C77.51413038 121.34215511 58.81671699 113.40233332 41.875 107.75 C39.34026697 106.92144373 36.80505156 106.09461838 34.26879883 105.27075195 C30.45928921 104.03190476 26.65095697 102.78983909 22.84559631 101.5382843 C15.2417374 99.03838676 7.61893243 96.62419979 -0.04296875 94.30859375 C-1.8182241 93.76799391 -3.59345303 93.22730728 -5.36865234 92.68652344 C-7.81447724 91.9422428 -10.26114692 91.20265277 -12.7131958 90.47912598 C-14.91403896 89.82817972 -17.10763057 89.15679815 -19.30078125 88.48046875 C-20.50903564 88.11848389 -21.71729004 87.75649902 -22.9621582 87.38354492 C-26.48218777 85.78039395 -27.95672662 84.25639912 -30 81 C-30.62347637 76.01218907 -30.06233637 73.00459372 -27 69 C-18.92449045 64.96224522 -8.59878876 69.99568101 -0.6953125 72.6015625 C0.79293117 73.08159296 2.28155642 73.56044185 3.77053833 74.03817749 C7.68291353 75.29683679 11.59007494 76.57096404 15.49627686 77.84863281 C19.40866633 79.12555771 23.32555054 80.38851989 27.2421875 81.65234375 C33.20646266 83.57866775 39.16932347 85.50928747 45.13061523 87.44482422 C45.81682418 87.66754942 46.50303312 87.89027462 47.21003628 88.11974907 C50.23640916 89.10214558 53.26246803 90.08548598 56.28787231 91.07086182 C58.9702055 91.94311871 61.6545481 92.80879129 64.33984375 93.671875 C65.06376312 93.90919342 65.7876825 94.14651184 66.53353882 94.39102173 C73.59544617 96.64606183 79.41536738 97.35160216 86.3125 94.4375 C91.3086892 91.60565187 94.20779949 87.37660152 96 82 C96.79142414 75.63468872 96.26880196 70.98975312 92.46484375 65.7421875 C84.22067472 55.93712247 70.53936271 53.03449339 58.76572037 49.11834335 C56.45134543 48.34840216 54.13891916 47.57283565 51.82687378 46.79592896 C46.09511384 44.87114306 40.36024041 42.95570444 34.62542725 41.04003906 C29.75124377 39.41145976 24.87829591 37.77927703 20.00692368 36.14230728 C17.73814911 35.38155129 15.46766041 34.62608068 13.197052 33.87081909 C11.80071399 33.40225888 10.40445911 32.93345082 9.00830078 32.46435547 C7.79651154 32.05974091 6.58472229 31.65512634 5.33621216 31.23825073 C0.0032375 29.25889227 -3.94075397 27.72718464 -7.0625 22.875 C-15.46680381 11.53380761 -29.33564153 5.00015664 -43.05517578 2.95288086 C-62.22215835 0.41888548 -77.36495515 6.87628596 -91.25390625 19.8984375 Z M-199 40 C-199 74.65 -199 109.3 -199 145 C-186.13 145 -173.26 145 -160 145 C-160 110.35 -160 75.7 -160 40 C-172.87 40 -185.74 40 -199 40 Z M-139 40 C-139 68.38 -139 96.76 -139 126 C-133.39 126 -127.78 126 -122 126 C-122 97.62 -122 69.24 -122 40 C-127.61 40 -133.22 40 -139 40 Z " fill="#000000" transform="translate(219,328)"/>
<path d="M0 0 C3.20613573 1.89993229 5.39902918 3.33474007 6.69921875 6.9375 C7.31497271 10.43339345 7.20710911 12.50947841 5.8125 15.8125 C2.86022662 19.37558856 1.3313318 20.82741995 -3.375 21.4375 C-7.61294831 20.92602348 -9.70904291 19.66410812 -13 17 C-14.73631636 13.52736727 -14.60190402 9.78806987 -14 6 C-9.78502349 0.67581915 -6.7408423 -0.67408423 0 0 Z " fill="#000000" transform="translate(353,123)"/>
<path d="M0 0 C2.96042112 2.58249502 4.59480753 4.1801882 5.4453125 8 C5.65509607 11.69219084 5.10795755 13.83086651 3.125 16.9375 C0.26777694 19.71068709 -1.42300746 20.20503898 -5.3125 20.375 C-8.89944824 20.31723916 -9.88749122 20.07500585 -13 18 C-15.46561879 14.30157181 -16.44374582 11.4461591 -16 7 C-14.31672123 3.50395947 -12.98214784 1.61052434 -9.6875 -0.4375 C-6.01974492 -1.20516967 -3.61582995 -1.03309427 0 0 Z " fill="#000000" transform="translate(168,384)"/>
</svg>
