<svg width="22" height="22" viewBox="0 0 22 22" fill="none" xmlns="http://www.w3.org/2000/svg">
<path d="M14.779 12.5177C15.3044 12.2591 15.9485 12 16.7503 12C17.5521 12 18.1963 12.2591 18.722 12.5176C18.9004 12.6054 19.0548 12.6863 19.1951 12.7599C19.5054 12.9225 19.7469 13.0491 20.0278 13.1342C20.2076 13.1887 20.3952 13.2455 20.5261 13.2942C20.6384 13.336 20.857 13.4205 21.027 13.6C21.177 13.7583 21.2479 13.9317 21.2883 14.0662C21.3217 14.1772 21.3498 14.3258 21.3695 14.4302C21.9271 17.3667 20.6991 20.206 17.6864 21.3018C17.4133 21.4013 17.1422 21.5 16.7517 21.5C16.3611 21.5 16.0901 21.4013 15.8169 21.3018C12.8043 20.2061 11.575 17.367 12.1324 14.4302C12.1521 14.3258 12.1803 14.1773 12.2136 14.0663C12.254 13.9318 12.3249 13.7584 12.4748 13.6001C12.6448 13.4206 12.8634 13.3361 12.9757 13.2943C13.1066 13.2456 13.2942 13.1887 13.474 13.1342C13.7547 13.0491 13.996 12.9226 14.3059 12.76C14.4462 12.6864 14.6006 12.6055 14.779 12.5177Z" fill="#035F75"/>
<g opacity="0.4">
<path d="M9.75 0C6.8505 0 4.5 2.3505 4.5 5.25C4.5 8.14949 6.8505 10.5 9.75 10.5C12.6495 10.5 15 8.14949 15 5.25C15 2.3505 12.6495 0 9.75 0Z" fill="#035F75"/>
<path d="M12.5313 21.334C12.6142 21.168 12.3916 20.8721 11.9466 20.2803C10.6602 18.5697 10.2436 16.3392 10.6587 14.1513L10.6618 14.1349C10.6794 14.0413 10.7202 13.8243 10.7772 13.6347C10.855 13.3755 11.016 12.9592 11.3859 12.5686C11.4091 12.5441 11.4325 12.5204 11.4562 12.4975C11.5837 12.3737 11.5309 12.1374 11.3549 12.1125C10.2911 11.9625 9.20929 11.9625 8.14543 12.1125C6.68096 12.3191 5.24889 12.8102 3.94404 13.5872C3.82778 13.6564 3.68408 13.7375 3.52151 13.8292C2.80869 14.2313 1.73106 14.8393 0.992896 15.5618C0.531228 16.0137 0.092574 16.6092 0.0128283 17.3388C-0.0719782 18.1146 0.266485 18.8427 0.945503 19.4896C2.11695 20.6056 3.52274 21.5 5.34104 21.5H11.4258C12.1075 21.5 12.4484 21.5 12.5313 21.334Z" fill="#035F75"/>
</g>
</svg>
