<svg width="24" height="24" viewBox="0 0 24 24" fill="none" xmlns="http://www.w3.org/2000/svg">
<path d="M11.1261 1.21215C11.1775 1.21194 11.1775 1.21194 11.23 1.21173C11.3447 1.21132 11.4594 1.21125 11.574 1.21118C11.6564 1.21096 11.7387 1.21072 11.821 1.21047C12.0445 1.20986 12.2681 1.20956 12.4916 1.20935C12.6314 1.20921 12.7712 1.20902 12.911 1.20881C13.3488 1.20817 13.7866 1.20771 14.2243 1.20753C14.7289 1.20732 15.2335 1.2065 15.7381 1.20514C16.1286 1.20413 16.5191 1.20366 16.9096 1.20359C17.1426 1.20354 17.3756 1.20327 17.6086 1.20243C17.828 1.20165 18.0474 1.20156 18.2668 1.20197C18.347 1.202 18.4272 1.2018 18.5074 1.20134C19.1682 1.19773 19.731 1.2499 20.2381 1.71092C20.2729 1.74959 20.3077 1.78826 20.3436 1.82811C20.3755 1.86291 20.4074 1.89771 20.4402 1.93357C20.681 2.27533 20.7728 2.61045 20.7711 3.02362C20.7711 3.07698 20.7711 3.07698 20.7712 3.13142C20.7713 3.25068 20.771 3.36993 20.7708 3.48919C20.7708 3.57466 20.7708 3.66012 20.7708 3.74558C20.7708 3.97771 20.7705 4.20984 20.7702 4.44197C20.7699 4.68452 20.7699 4.92706 20.7698 5.16961C20.7697 5.62896 20.7693 6.08831 20.7688 6.54766C20.7683 7.07059 20.768 7.59352 20.7678 8.11646C20.7673 9.19221 20.7665 10.268 20.7654 11.3437C20.7976 11.3531 20.8298 11.3624 20.863 11.3721C20.9052 11.3845 20.9474 11.3969 20.9909 11.4097C21.0328 11.422 21.0747 11.4342 21.1178 11.4469C21.7368 11.6463 22.2183 12.1944 22.5084 12.7557C22.8601 13.4857 22.809 14.2831 22.8063 15.0735C22.8058 15.2543 22.8062 15.4352 22.8065 15.6161C22.8069 15.9196 22.8064 16.2232 22.8055 16.5267C22.8045 16.8756 22.8048 17.2245 22.8059 17.5734C22.8067 17.8752 22.8068 18.1769 22.8063 18.4787C22.806 18.6579 22.806 18.8372 22.8066 19.0165C22.8099 20.1139 22.7961 21.1399 21.9915 21.9847C21.3109 22.6136 20.504 22.8037 19.5985 22.7994C19.5301 22.7996 19.4616 22.7999 19.3932 22.8002C19.2068 22.8008 19.0205 22.8006 18.8341 22.8003C18.6324 22.8001 18.4308 22.8007 18.2291 22.8011C17.8347 22.8019 17.4402 22.802 17.0458 22.8017C16.725 22.8016 16.4042 22.8016 16.0834 22.8019C16.0377 22.8019 15.9919 22.8019 15.9448 22.802C15.8518 22.8021 15.7589 22.8021 15.6659 22.8022C14.7951 22.8028 13.9243 22.8026 13.0536 22.802C12.2581 22.8016 11.4627 22.8022 10.6672 22.8033C9.84916 22.8045 9.03108 22.8049 8.21299 22.8046C7.75423 22.8044 7.29547 22.8045 6.83671 22.8054C6.44616 22.806 6.05561 22.8061 5.66505 22.8053C5.46606 22.8049 5.26708 22.8048 5.0681 22.8055C4.88543 22.8061 4.70279 22.8059 4.52012 22.805C4.45455 22.8048 4.38897 22.805 4.3234 22.8054C3.46546 22.8114 2.65043 22.5968 2.01508 21.9917C1.29383 21.211 1.19708 20.3199 1.20037 19.3079C1.20018 19.209 1.19993 19.1102 1.19963 19.0113C1.19899 18.7444 1.19923 18.4775 1.19968 18.2106C1.20004 17.9304 1.19971 17.6501 1.19949 17.3699C1.19923 16.8994 1.19957 16.429 1.20024 15.9585C1.201 15.4157 1.20075 14.8729 1.19998 14.3301C1.19934 13.8629 1.19925 13.3956 1.19962 12.9284C1.19984 12.6498 1.19987 12.3713 1.1994 12.0928C1.19899 11.8308 1.19928 11.5689 1.20009 11.3069C1.20028 11.2112 1.20023 11.1155 1.19991 11.0197C1.19711 10.073 1.32473 9.24875 1.99977 8.53424C2.28401 8.25014 2.80578 7.82811 3.23419 7.82811C3.23378 7.80224 3.23336 7.77637 3.23293 7.74972C3.22875 7.47821 3.22594 7.20671 3.2239 6.93518C3.22296 6.83412 3.22168 6.73306 3.22005 6.632C3.21775 6.48596 3.21671 6.33995 3.21588 6.19389C3.21492 6.14939 3.21395 6.10488 3.21295 6.05903C3.21279 5.55603 3.38002 5.12179 3.72345 4.75193C3.78291 4.69683 3.78291 4.69683 3.84357 4.64061C3.87741 4.6087 3.91125 4.5768 3.94611 4.54393C4.33965 4.27282 4.75082 4.21149 5.21646 4.21341C5.25993 4.2134 5.3034 4.2134 5.34818 4.21339C5.49148 4.21342 5.63478 4.21379 5.77808 4.21415C5.87758 4.21424 5.97709 4.21431 6.07659 4.21435C6.33822 4.21453 6.59984 4.21499 6.86146 4.21551C7.12854 4.21599 7.39562 4.21621 7.66269 4.21644C8.18653 4.21694 8.71036 4.21774 9.23419 4.21873C9.23321 4.17457 9.23223 4.13041 9.23122 4.08491C9.22799 3.91866 9.22566 3.75243 9.2239 3.58616C9.22296 3.51465 9.22169 3.44315 9.22005 3.37165C9.20605 2.74423 9.27663 2.23313 9.72345 1.75193C9.76309 1.7152 9.80273 1.67846 9.84357 1.64061C9.87741 1.6087 9.91125 1.5768 9.94611 1.54393C10.3072 1.29514 10.6939 1.21313 11.1261 1.21215ZM10.832 2.82851C10.7512 2.95172 10.7654 3.06167 10.7673 3.20707C10.7678 3.26584 10.7682 3.3246 10.7687 3.38514C10.7699 3.44656 10.7711 3.50799 10.7723 3.57127C10.773 3.63386 10.7736 3.69645 10.7742 3.75904C10.7759 3.91229 10.7782 4.0655 10.7811 4.21873C10.8174 4.21901 10.8537 4.21928 10.8912 4.21956C11.2359 4.22229 11.5806 4.22568 11.9254 4.22978C12.1026 4.23186 12.2797 4.23371 12.4569 4.23497C12.6283 4.2362 12.7997 4.2381 12.9712 4.24044C13.0361 4.24122 13.1011 4.24176 13.166 4.24206C13.902 4.24574 14.6009 4.38228 15.1404 4.92186C15.4544 5.30839 15.7063 5.75862 15.7104 6.26693C15.7108 6.31097 15.7113 6.35501 15.7118 6.40038C15.712 6.44836 15.7123 6.49634 15.7126 6.54577C15.713 6.59655 15.7135 6.64733 15.714 6.69964C15.7155 6.86754 15.7166 7.03545 15.7178 7.20335C15.7187 7.31974 15.7197 7.43612 15.7207 7.55251C15.7231 7.82759 15.7252 8.10266 15.7272 8.37774C15.7301 8.77665 15.7335 9.17556 15.7368 9.57447C15.7414 10.133 15.7456 10.6915 15.7498 11.25C16.8945 11.25 18.0392 11.25 19.2186 11.25C19.2217 10.1645 19.2243 9.07906 19.2259 7.9936C19.2266 7.48962 19.2276 6.98565 19.2292 6.48167C19.2306 6.04252 19.2315 5.60336 19.2318 5.16421C19.232 4.93158 19.2324 4.69895 19.2334 4.46633C19.2344 4.24752 19.2347 4.02873 19.2345 3.80992C19.2345 3.72948 19.2348 3.64904 19.2353 3.56859C19.236 3.45902 19.2359 3.34948 19.2355 3.2399C19.2356 3.1785 19.2357 3.1171 19.2359 3.05384C19.2288 2.91065 19.2288 2.91065 19.1675 2.81618C19.0294 2.73819 18.9102 2.74789 18.7523 2.74775C18.7023 2.74742 18.7023 2.74742 18.6513 2.74708C18.5394 2.74652 18.4275 2.74697 18.3155 2.74741C18.2353 2.74722 18.1552 2.74697 18.075 2.74666C17.8571 2.74602 17.6392 2.74627 17.4213 2.74672C17.1936 2.74707 16.9658 2.74674 16.738 2.74652C16.3554 2.74627 15.9729 2.7466 15.5903 2.74727C15.1477 2.74804 14.7051 2.74779 14.2625 2.74702C13.8828 2.74638 13.5032 2.74629 13.1235 2.74665C12.8966 2.74687 12.6697 2.7469 12.4428 2.74644C12.2295 2.74603 12.0162 2.74631 11.8029 2.74713C11.7245 2.74731 11.6461 2.74726 11.5677 2.74695C11.4609 2.74657 11.3541 2.74705 11.2473 2.74775C11.1875 2.7478 11.1276 2.74785 11.066 2.74791C10.9234 2.75391 10.9234 2.75391 10.832 2.82851ZM4.8307 5.82551C4.73942 5.97399 4.76421 6.15079 4.76734 6.31987C4.76754 6.36024 4.76774 6.40062 4.76794 6.44222C4.76873 6.57119 4.77049 6.70013 4.77228 6.82908C4.77299 6.91651 4.77363 7.00395 4.7742 7.09138C4.77575 7.30572 4.77818 7.52003 4.78107 7.73436C4.81196 7.73447 4.84284 7.73458 4.87467 7.73469C5.62828 7.73747 6.38189 7.74102 7.1355 7.74541C7.49995 7.74751 7.8644 7.74936 8.22885 7.7506C8.54673 7.75168 8.8646 7.75325 9.18248 7.75539C9.35059 7.75651 9.51869 7.75739 9.68681 7.75768C9.87507 7.75802 10.0633 7.75945 10.2516 7.76096C10.334 7.76086 10.334 7.76086 10.4181 7.76076C11.1976 7.76956 11.9053 8.02849 12.4686 8.57811C12.7836 8.93906 13.045 9.34184 13.3133 9.73785C13.4893 9.99693 13.6701 10.2517 13.8572 10.5029C13.8805 10.5344 13.9038 10.566 13.9278 10.5985C14.0282 10.7318 14.1097 10.8285 14.2498 10.9219C14.2531 10.3546 14.2556 9.78743 14.2571 9.2202C14.2578 8.95679 14.2588 8.69339 14.2604 8.42999C14.262 8.17559 14.2628 7.92121 14.2632 7.66681C14.2634 7.56995 14.2639 7.47309 14.2647 7.37623C14.2657 7.24014 14.2658 7.10407 14.2658 6.96798C14.2663 6.92829 14.2668 6.88861 14.2673 6.84772C14.2658 6.54415 14.2227 6.23609 14.0286 5.99266C14.0011 5.97187 13.9735 5.95108 13.9451 5.92967C13.9176 5.90792 13.89 5.88616 13.8616 5.86375C13.6803 5.74838 13.5001 5.75877 13.2935 5.75902C13.2579 5.75888 13.2222 5.75874 13.1855 5.7586C13.0658 5.75819 12.9461 5.75812 12.8264 5.75805C12.7407 5.75784 12.655 5.7576 12.5693 5.75735C12.3363 5.75673 12.1033 5.75643 11.8702 5.75622C11.7248 5.75608 11.5793 5.75589 11.4339 5.75568C10.9791 5.75504 10.5243 5.75459 10.0695 5.75441C9.54388 5.7542 9.01826 5.75337 8.49264 5.75202C8.0867 5.75101 7.68077 5.75053 7.27484 5.75047C7.0322 5.75042 6.78958 5.75014 6.54694 5.7493C6.31886 5.74854 6.0908 5.74843 5.86272 5.74884C5.77887 5.74888 5.69503 5.74867 5.61118 5.74821C5.497 5.74762 5.38284 5.74789 5.26866 5.74838C5.23524 5.748 5.20182 5.74762 5.16739 5.74724C5.03503 5.74857 4.94288 5.75166 4.8307 5.82551ZM2.99982 9.74998C2.79879 10.0605 2.75847 10.3403 2.75886 10.7059C2.75872 10.746 2.75858 10.786 2.75844 10.8273C2.75803 10.9618 2.75796 11.0962 2.75789 11.2307C2.75767 11.327 2.75744 11.4233 2.75719 11.5197C2.75657 11.7816 2.75627 12.0434 2.75606 12.3053C2.75592 12.469 2.75573 12.6326 2.75552 12.7963C2.75488 13.3083 2.75443 13.8204 2.75425 14.3324C2.75404 14.9234 2.75321 15.5143 2.75186 16.1053C2.75084 16.5622 2.75037 17.019 2.75031 17.4759C2.75026 17.7487 2.74998 18.0215 2.74914 18.2943C2.74837 18.5511 2.74827 18.8078 2.74868 19.0646C2.74872 19.1586 2.74851 19.2527 2.74805 19.3468C2.74745 19.4756 2.74773 19.6043 2.74822 19.7331C2.74784 19.77 2.74746 19.8069 2.74707 19.845C2.75049 20.2323 2.85896 20.6274 3.14044 20.9062C3.46425 21.1425 3.72539 21.24 4.12599 21.2405C4.18302 21.2407 4.24005 21.2409 4.29881 21.2411C4.36194 21.241 4.42507 21.241 4.4882 21.2409C4.55539 21.2411 4.62258 21.2412 4.68976 21.2414C4.87441 21.2417 5.05905 21.2418 5.2437 21.2419C5.44283 21.2419 5.64197 21.2423 5.84111 21.2426C6.27654 21.2432 6.71197 21.2435 7.14741 21.2437C7.41931 21.2439 7.6912 21.2441 7.9631 21.2443C8.71594 21.2449 9.46878 21.2453 10.2216 21.2455C10.2698 21.2455 10.318 21.2455 10.3676 21.2455C10.4401 21.2455 10.4401 21.2455 10.514 21.2456C10.6118 21.2456 10.7097 21.2456 10.8075 21.2456C10.8561 21.2456 10.9046 21.2456 10.9546 21.2456C11.7412 21.2458 12.5278 21.2467 13.3144 21.2477C14.122 21.2489 14.9297 21.2494 15.7373 21.2495C16.1907 21.2495 16.6442 21.2498 17.0976 21.2507C17.4837 21.2514 17.8698 21.2516 18.2559 21.2512C18.4529 21.251 18.6498 21.2511 18.8467 21.2517C19.0272 21.2523 19.2076 21.2523 19.388 21.2517C19.4532 21.2516 19.5183 21.2518 19.5835 21.2522C20.0409 21.2549 20.4553 21.2237 20.8293 20.9368C21.1254 20.638 21.2395 20.3025 21.2408 19.8906C21.241 19.8377 21.2413 19.7847 21.2416 19.7302C21.2416 19.6725 21.2417 19.6148 21.2417 19.5554C21.242 19.4943 21.2422 19.4333 21.2425 19.3703C21.2431 19.2031 21.2434 19.0358 21.2436 18.8685C21.2437 18.7639 21.2439 18.6592 21.2441 18.5546C21.2448 18.2267 21.2452 17.8989 21.2454 17.571C21.2456 17.1934 21.2464 16.8157 21.2478 16.4381C21.2488 16.1456 21.2493 15.8532 21.2493 15.5607C21.2494 15.3863 21.2497 15.2119 21.2505 15.0375C21.2514 14.8427 21.2512 14.648 21.2509 14.4532C21.2513 14.3959 21.2518 14.3386 21.2522 14.2796C21.2498 13.7851 21.1689 13.439 20.824 13.0757C20.4386 12.7418 19.9746 12.7431 19.4897 12.7433C19.4372 12.7432 19.3846 12.743 19.3305 12.7428C19.2165 12.7425 19.1026 12.7422 18.9887 12.7421C18.8079 12.7417 18.6271 12.741 18.4464 12.7401C17.9325 12.7377 17.4186 12.7354 16.9048 12.7347C16.5902 12.7343 16.2756 12.7328 15.961 12.7309C15.8415 12.7303 15.7221 12.7301 15.6026 12.7302C14.4113 12.731 14.4113 12.731 13.9217 12.5156C13.8799 12.4989 13.8381 12.4822 13.795 12.4649C13.1573 12.1997 12.7716 11.6269 12.4011 11.0761C12.2035 10.7861 11.9941 10.5041 11.7874 10.2206C11.7242 10.1328 11.6625 10.0442 11.6012 9.95506C11.3567 9.60805 11.137 9.4155 10.7342 9.28123C10.6411 9.27666 10.5479 9.2749 10.4547 9.27465C10.3962 9.27438 10.3378 9.27411 10.2776 9.27384C10.2128 9.27378 10.1479 9.27373 10.083 9.27368C10.0148 9.27346 9.94659 9.27322 9.87837 9.27297C9.69289 9.27236 9.50742 9.27205 9.32194 9.27185C9.206 9.27171 9.09006 9.27152 8.97412 9.27131C8.61121 9.27067 8.2483 9.27021 7.88539 9.27003C7.46679 9.26982 7.0482 9.269 6.62961 9.26764C6.30587 9.26663 5.98214 9.26616 5.65841 9.26609C5.46515 9.26604 5.2719 9.26577 5.07865 9.26493C4.8967 9.26415 4.71476 9.26406 4.53281 9.26447C4.46622 9.2645 4.39963 9.2643 4.33305 9.26384C3.77976 9.2602 3.38261 9.32221 2.99982 9.74998Z" fill="#4D4D4D"/>
<path d="M6.13348 14.7113C6.16597 14.7111 6.19846 14.7109 6.23193 14.7106C6.33938 14.7099 6.44683 14.7096 6.55429 14.7094C6.62909 14.7091 6.70388 14.7088 6.77867 14.7086C6.93554 14.7081 7.09241 14.7078 7.24928 14.7076C7.44993 14.7074 7.65057 14.7062 7.85122 14.7049C8.00576 14.704 8.1603 14.7038 8.31484 14.7037C8.38879 14.7036 8.46274 14.7032 8.53669 14.7026C8.64036 14.7018 8.74399 14.7019 8.84765 14.7022C8.90656 14.702 8.96547 14.7018 9.02616 14.7017C9.23348 14.7238 9.39225 14.7884 9.5455 14.9315C9.76913 15.2239 9.78317 15.4313 9.74967 15.797C9.6408 16.0409 9.47506 16.1613 9.23404 16.2658C9.06542 16.2899 9.06542 16.2899 8.88432 16.2908C8.85104 16.2912 8.81776 16.2916 8.78348 16.292C8.67443 16.293 8.56544 16.2927 8.45639 16.2923C8.37999 16.2926 8.30359 16.2929 8.22718 16.2932C8.06741 16.2937 7.90765 16.2935 7.74788 16.2928C7.54386 16.292 7.3399 16.2931 7.1359 16.2947C6.97821 16.2958 6.82054 16.2957 6.66285 16.2953C6.58767 16.2953 6.51249 16.2956 6.43731 16.2963C5.6704 16.3023 5.6704 16.3023 5.39029 16.0314C5.22009 15.8207 5.22612 15.6313 5.23319 15.3695C5.26306 15.1248 5.38046 15.0044 5.55728 14.8449C5.75041 14.7112 5.90374 14.7126 6.13348 14.7113Z" fill="#4D4D4D"/>
<path d="M6.07285 17.2258C6.10719 17.2255 6.14153 17.2252 6.1769 17.2248C6.2897 17.224 6.40244 17.2245 6.51524 17.2252C6.59403 17.225 6.67283 17.2249 6.75163 17.2246C6.91649 17.2243 7.08133 17.2247 7.24619 17.2256C7.4571 17.2267 7.66795 17.2261 7.87886 17.225C8.04148 17.2243 8.2041 17.2245 8.36673 17.225C8.44447 17.2251 8.52222 17.225 8.59996 17.2245C8.70879 17.224 8.81755 17.2248 8.92637 17.2258C8.98818 17.226 9.05 17.2261 9.11369 17.2263C9.36185 17.2616 9.50386 17.3763 9.67344 17.5548C9.78585 17.7969 9.78495 18.0188 9.74961 18.2813C9.64137 18.5145 9.50247 18.625 9.28086 18.7501C9.11369 18.7739 9.11369 18.7739 8.92637 18.7743C8.89203 18.7747 8.8577 18.775 8.82232 18.7753C8.70952 18.7761 8.59678 18.7756 8.48399 18.775C8.40519 18.7751 8.32639 18.7753 8.2476 18.7755C8.08273 18.7758 7.91789 18.7754 7.75303 18.7745C7.54213 18.7734 7.33127 18.7741 7.12037 18.7752C6.95774 18.7759 6.79512 18.7756 6.63249 18.7752C6.55475 18.775 6.477 18.7752 6.39926 18.7756C6.29043 18.7761 6.18168 18.7754 6.07285 18.7743C6.01104 18.7742 5.94922 18.774 5.88554 18.7739C5.63737 18.7385 5.49536 18.6239 5.32578 18.4454C5.21337 18.2033 5.21428 17.9813 5.24961 17.7188C5.41762 17.3569 5.68491 17.2267 6.07285 17.2258Z" fill="#4D4D4D"/>
</svg>
