<svg width="22" height="22" viewBox="0 0 22 22" fill="none" xmlns="http://www.w3.org/2000/svg">
<path d="M21.3745 18.3357L16.562 13.5232C17.6892 11.6538 18.0933 9.43655 17.6979 7.28971C17.3026 5.14286 16.1353 3.21492 14.4161 1.86964C12.697 0.524353 10.545 -0.145247 8.36605 -0.0128274C6.18714 0.119593 4.13202 1.04488 2.58845 2.58845C1.04488 4.13202 0.119593 6.18714 -0.0128274 8.36605C-0.145247 10.545 0.524353 12.697 1.86964 14.4161C3.21492 16.1353 5.14286 17.3026 7.28971 17.6979C9.43655 18.0933 11.6538 17.6892 13.5232 16.562L18.3357 21.3745C18.5348 21.5744 18.7716 21.7327 19.0325 21.8402C19.2934 21.9476 19.573 22.0019 19.8551 22.0001C20.2787 21.9979 20.6921 21.8707 21.0437 21.6346C21.3953 21.3984 21.6694 21.0637 21.8316 20.6725C21.9939 20.2812 22.037 19.8508 21.9557 19.4351C21.8744 19.0194 21.6722 18.637 21.3745 18.3357ZM1.37512 8.93762C1.37512 7.4419 1.81865 5.97977 2.64963 4.73612C3.48061 3.49247 4.66171 2.52317 6.04358 1.95078C7.42544 1.37839 8.94601 1.22863 10.413 1.52043C11.88 1.81223 13.2275 2.53249 14.2851 3.59013C15.3428 4.64776 16.063 5.99527 16.3548 7.46225C16.6466 8.92923 16.4968 10.4498 15.9245 11.8317C15.3521 13.2135 14.3828 14.3946 13.1391 15.2256C11.8955 16.0566 10.4333 16.5001 8.93762 16.5001C6.93192 16.5001 5.00837 15.7034 3.59013 14.2851C2.17188 12.8669 1.37512 10.9433 1.37512 8.93762ZM19.8551 20.6251C19.7541 20.6251 19.654 20.6051 19.5608 20.5662C19.4676 20.5272 19.383 20.4701 19.312 20.3982L14.6851 15.7714C15.0775 15.4409 15.4409 15.0775 15.7714 14.6851L20.3982 19.312C20.4704 19.3828 20.5277 19.4673 20.5667 19.5606C20.6057 19.6539 20.6255 19.754 20.6251 19.8551C20.6251 20.0593 20.544 20.2552 20.3996 20.3996C20.2552 20.544 20.0593 20.6251 19.8551 20.6251Z" fill="#4D4D4D"/>
</svg>
