<svg width="22" height="22" viewBox="0 0 22 22" fill="none" xmlns="http://www.w3.org/2000/svg">
<path d="M11.578 4.75096C11.6888 4.43791 11.749 4.10099 11.749 3.75C11.749 2.09315 10.4059 0.75 8.74904 0.75C7.09219 0.75 5.74904 2.09315 5.74904 3.75C5.74904 4.10099 5.80932 4.43791 5.92008 4.75096C3.63532 4.7593 2.41601 4.84039 1.62772 5.62868C0.83951 6.41689 0.758356 7.63603 0.75 9.92037C1.06251 9.81003 1.39876 9.75 1.74904 9.75C3.4059 9.75 4.74904 11.0931 4.74904 12.75C4.74904 14.4069 3.4059 15.75 1.74904 15.75C1.39876 15.75 1.06251 15.69 0.75 15.5796C0.758356 17.864 0.83951 19.0831 1.62772 19.8713C2.41593 20.6595 3.63508 20.7407 5.91941 20.749C5.80908 20.4365 5.74904 20.1003 5.74904 19.75C5.74904 18.0931 7.09219 16.75 8.74904 16.75C10.4059 16.75 11.749 18.0931 11.749 19.75C11.749 20.1003 11.689 20.4365 11.5787 20.749C13.863 20.7407 15.0822 20.6595 15.8704 19.8713C16.6586 19.083 16.7397 17.8637 16.7481 15.579C17.0611 15.6897 17.398 15.75 17.749 15.75C19.4059 15.75 20.749 14.4069 20.749 12.75C20.749 11.0931 19.4059 9.75 17.749 9.75C17.398 9.75 17.0611 9.81028 16.7481 9.92104C16.7397 7.63627 16.6586 6.41697 15.8704 5.62868C15.0821 4.84039 13.8628 4.7593 11.578 4.75096Z" stroke="#585858" stroke-width="1.5" stroke-linejoin="round"/>
</svg>
