<svg width="22" height="22" viewBox="0 0 22 22" fill="none" xmlns="http://www.w3.org/2000/svg">
<path d="M4.99904 3.75C4.99904 1.67893 6.67797 0 8.74904 0C10.8201 0 12.499 1.67893 12.499 3.75C12.499 3.83751 12.496 3.92439 12.4901 4.01052C13.2275 4.02565 13.8665 4.06322 14.4139 4.15844C15.1968 4.29462 15.8618 4.55948 16.4007 5.09835C16.9396 5.63722 17.2044 6.30227 17.3406 7.08514C17.4358 7.63251 17.4734 8.27155 17.4885 9.00894C17.5747 9.00301 17.6615 9 17.749 9C19.8201 9 21.499 10.6789 21.499 12.75C21.499 14.8211 19.8201 16.5 17.749 16.5C17.6615 16.5 17.5747 16.497 17.4885 16.4911C17.4734 17.2285 17.4358 17.8675 17.3406 18.4149C17.2044 19.1977 16.9396 19.8628 16.4007 20.4017C15.8619 20.9405 15.1969 21.2053 14.4141 21.3415C13.6531 21.4739 12.7148 21.4949 11.5814 21.499C11.3375 21.4999 11.1084 21.3822 10.9672 21.1833C10.826 20.9844 10.7903 20.7293 10.8715 20.4993C10.9539 20.2659 10.999 20.014 10.999 19.75C10.999 18.5074 9.99168 17.5 8.74904 17.5C7.5064 17.5 6.49904 18.5074 6.49904 19.75C6.49904 20.014 6.54421 20.2659 6.62663 20.4993C6.70783 20.7293 6.67212 20.9844 6.5309 21.1833C6.38967 21.3822 6.16057 21.4999 5.91667 21.499C4.78327 21.4949 3.845 21.4739 3.08395 21.3415C2.30118 21.2053 1.63621 20.9405 1.09739 20.4017C0.558573 19.8628 0.293717 19.1979 0.157517 18.4151C0.0250961 17.654 0.00415083 16.7158 5.03301e-06 15.5824C-0.000887129 15.3385 0.116878 15.1094 0.315735 14.9681C0.514592 14.8269 0.769703 14.7912 0.999692 14.8724C1.23311 14.9548 1.48499 15 1.74904 15C2.99168 15 3.99904 13.9926 3.99904 12.75C3.99904 11.5074 2.99168 10.5 1.74904 10.5C1.48499 10.5 1.23311 10.5452 0.999692 10.6276C0.769703 10.7088 0.514592 10.6731 0.315735 10.5319C0.116878 10.3906 -0.000887129 10.1615 5.03301e-06 9.91762C0.00415083 8.78423 0.0250961 7.84595 0.157517 7.08491C0.293717 6.30214 0.558574 5.63717 1.09739 5.09835C1.63626 4.55948 2.30131 4.29462 3.08418 4.15844C3.63155 4.06322 4.27059 4.02565 5.00798 4.01052C5.00205 3.92439 4.99904 3.83751 4.99904 3.75Z" fill="#035F75"/>
</svg>
