<svg width="26" height="26" viewBox="0 0 26 26" fill="none" xmlns="http://www.w3.org/2000/svg">
<g clip-path="url(#clip0_1071_9731)">
<path d="M12.9811 -0.0158595C13.0327 -0.01575 13.0844 -0.0156406 13.1377 -0.0155278C13.8796 -0.0130055 14.6074 -0.000264637 15.336 0.152353C15.3855 0.162442 15.435 0.172532 15.486 0.182926C17.8936 0.686539 20.1723 1.76926 21.9376 3.50392C21.9909 3.55539 21.9909 3.55539 22.0453 3.60791C22.5417 4.08719 23.0041 4.57086 23.4103 5.12892C23.4537 5.18731 23.4973 5.2457 23.5408 5.30407C23.8475 5.71998 24.1209 6.15184 24.3751 6.60157C24.3955 6.63749 24.4159 6.6734 24.437 6.7104C25.1862 8.04111 25.6701 9.5106 25.8985 11.0195C25.9075 11.0764 25.9165 11.1332 25.9258 11.1917C26.0112 11.787 26.0182 12.3772 26.016 12.9778C26.0159 13.0296 26.0157 13.0814 26.0156 13.1348C26.0131 13.8776 26.0006 14.6064 25.8478 15.3359C25.8326 15.4102 25.8326 15.4102 25.8172 15.486C25.3032 17.9429 24.1903 20.1766 22.4454 21.9883C22.4133 22.0218 22.3812 22.0553 22.3481 22.0898C21.8838 22.5716 21.4116 23.0154 20.8712 23.4102C20.8127 23.4537 20.7543 23.4973 20.6958 23.5409C20.28 23.8475 19.8482 24.1208 19.3985 24.375C19.3626 24.3954 19.3267 24.4159 19.2897 24.4369C18.1454 25.0812 16.9131 25.5105 15.6312 25.7842C15.5842 25.7943 15.5373 25.8044 15.4889 25.8148C14.6721 25.9807 13.8664 26.0207 13.035 26.0191C12.9581 26.019 12.9581 26.019 12.8797 26.019C12.0413 26.0169 11.233 25.9708 10.4103 25.7969C10.3573 25.7857 10.3044 25.7746 10.2499 25.7631C8.47426 25.3758 6.79928 24.6371 5.33213 23.5625C5.30303 23.5414 5.27393 23.5203 5.24395 23.4985C4.80449 23.1774 4.40311 22.8231 4.01181 22.4453C3.97746 22.4124 3.94311 22.3794 3.90772 22.3454C3.42684 21.8818 2.98399 21.4106 2.58994 20.8711C2.54636 20.8126 2.50279 20.7542 2.45922 20.6957C2.15262 20.2799 1.87928 19.8481 1.62509 19.3984C1.60467 19.3625 1.58425 19.3266 1.5632 19.2896C0.814005 17.9589 0.330086 16.4894 0.101657 14.9805C0.0926518 14.9237 0.0836469 14.8668 0.0743691 14.8083C-0.011015 14.2131 -0.0180522 13.6228 -0.015775 13.0222C-0.0156109 12.9445 -0.0156109 12.9445 -0.0154434 12.8652C-0.0129228 12.1224 -0.000372924 11.3937 0.152438 10.6641C0.162527 10.6146 0.172616 10.5651 0.183011 10.5141C0.696949 8.05717 1.8099 5.82339 3.55478 4.01173C3.58688 3.97825 3.61898 3.94476 3.65205 3.91026C4.11642 3.42844 4.58855 2.98462 5.129 2.58985C5.18745 2.54628 5.2459 2.50271 5.30435 2.45913C5.72023 2.15254 6.15201 1.87919 6.60166 1.62501C6.63757 1.60459 6.67348 1.58416 6.71048 1.56312C7.88533 0.901673 9.16355 0.457396 10.4832 0.187266C10.5198 0.179783 10.5563 0.1723 10.5939 0.16459C11.3884 0.0135738 12.1742 -0.0189319 12.9811 -0.0158595Z" fill="#C8102E"/>
<path d="M14.9297 14.9297C18.5494 14.9297 22.1691 14.9297 25.8984 14.9297C25.72 16 25.72 16 25.5842 16.469C25.5612 16.5493 25.5612 16.5493 25.5378 16.6312C25.0173 18.4058 24.1547 20.0235 22.9531 21.4297C22.9208 21.4677 22.8885 21.5058 22.8551 21.5449C22.255 22.2303 21.6082 22.8737 20.8711 23.4102C20.8127 23.4536 20.7543 23.4972 20.6959 23.5407C20.28 23.8474 19.8482 24.1208 19.3984 24.375C19.3446 24.4056 19.3446 24.4056 19.2896 24.4369C18.0673 25.125 16.3635 25.8984 14.9297 25.8984C14.9297 22.2787 14.9297 18.6591 14.9297 14.9297Z" fill="#FDFCFD"/>
<path d="M14.9297 0.101562C16.0002 0.279973 16.0002 0.279973 16.469 0.415771C16.5226 0.431138 16.5762 0.446505 16.6314 0.462337C18.6112 1.04346 20.4609 2.05293 21.9375 3.50391C21.9731 3.53822 22.0086 3.57254 22.0452 3.6079C22.5416 4.08718 23.004 4.57085 23.4102 5.12891C23.4536 5.1873 23.4972 5.24569 23.5407 5.30406C23.8474 5.71997 24.1208 6.15183 24.375 6.60156C24.4056 6.65543 24.4056 6.65543 24.4369 6.71039C24.9086 7.54817 25.2573 8.42669 25.5334 9.34692C25.5469 9.39115 25.5604 9.43538 25.5743 9.48096C25.725 10.0062 25.7995 10.5259 25.8984 11.0703C22.2787 11.0703 18.6591 11.0703 14.9297 11.0703C14.9297 7.45062 14.9297 3.83094 14.9297 0.101562Z" fill="#FDFCFD"/>
<path d="M11.0703 0.101562C11.0703 3.72125 11.0703 7.34094 11.0703 11.0703C7.45062 11.0703 3.83094 11.0703 0.101562 11.0703C0.279951 9.99998 0.279951 9.99998 0.415771 9.53101C0.438766 9.45071 0.438766 9.45071 0.462226 9.36879C0.982735 7.59418 1.84527 5.97649 3.04688 4.57031C3.09538 4.51326 3.09538 4.51326 3.14487 4.45506C3.74497 3.76974 4.39184 3.12632 5.12891 2.58984C5.1873 2.54635 5.24569 2.50284 5.30406 2.45932C5.71997 2.1526 6.15183 1.87923 6.60156 1.625C6.63748 1.60458 6.67339 1.58415 6.71039 1.56311C7.94079 0.870385 9.62886 0.101562 11.0703 0.101562Z" fill="#FDFCFC"/>
<path d="M0.101562 14.9297C3.72125 14.9297 7.34094 14.9297 11.0703 14.9297C11.0703 18.5494 11.0703 22.1691 11.0703 25.8984C9.76131 25.6604 9.76131 25.6604 9.35327 25.5366C9.30357 25.5217 9.25386 25.5069 9.20265 25.4915C7.24919 24.8888 5.48268 23.8655 4.01172 22.4453C3.96019 22.3959 3.96019 22.3959 3.90763 22.3454C3.42675 21.8818 2.9839 21.4106 2.58984 20.8711C2.54627 20.8126 2.5027 20.7542 2.45912 20.6957C2.15253 20.2799 1.87918 19.8481 1.625 19.3984C1.60458 19.3625 1.58415 19.3266 1.56311 19.2896C1.09144 18.4518 0.742662 17.5733 0.466553 16.6531C0.453056 16.6088 0.439559 16.5646 0.425653 16.519C0.27504 15.9938 0.200538 15.4741 0.101562 14.9297Z" fill="#FDFCFD"/>
<path d="M16.3008 18.9922C16.5862 19.1634 16.5862 19.1634 16.7154 19.2766C16.7437 19.3013 16.7721 19.3259 16.8014 19.3513C16.831 19.3774 16.8606 19.4034 16.8911 19.4302C16.9546 19.4853 17.0182 19.5404 17.0817 19.5954C17.113 19.6225 17.1442 19.6495 17.1764 19.6774C17.2986 19.7822 17.4231 19.8841 17.5481 19.9856C17.7523 20.1514 17.9539 20.3199 18.1543 20.4902C18.3965 20.6959 18.6407 20.8987 18.8871 21.0994C19.3731 21.4958 19.8581 21.8935 20.3351 22.3007C20.4644 22.4109 20.5947 22.5194 20.7277 22.625C20.7781 22.6652 20.8286 22.7054 20.8806 22.7468C20.9253 22.7818 20.97 22.8169 21.0161 22.853C21.1237 22.9519 21.1664 23.0259 21.2266 23.1562C20.6362 23.5963 20.0375 24.0087 19.3984 24.375C19.3604 24.3968 19.3224 24.4186 19.2833 24.441C18.6358 24.8073 17.9633 25.0843 17.2656 25.3398C17.2309 25.3528 17.1962 25.3658 17.1605 25.3792C16.8451 25.4968 16.6477 25.543 16.3008 25.543C16.3008 23.3812 16.3008 21.2195 16.3008 18.9922Z" fill="#02226A"/>
<path d="M16.3008 0.457031C16.6685 0.493806 16.9484 0.536765 17.2847 0.660156C17.328 0.67574 17.3714 0.691323 17.416 0.707379C18.6209 1.15016 19.7268 1.75049 20.7632 2.50415C20.7992 2.52973 20.8352 2.55531 20.8723 2.58166C20.9218 2.61841 20.9218 2.61841 20.9723 2.6559C21.0018 2.67746 21.0313 2.69901 21.0617 2.72122C21.125 2.79297 21.125 2.79297 21.125 2.99609C21.0277 3.09429 20.9343 3.17746 20.8267 3.2627C20.7965 3.28737 20.7663 3.31205 20.7352 3.33748C20.6456 3.41053 20.5553 3.48273 20.4648 3.55469C20.4207 3.59004 20.3766 3.62538 20.3311 3.6618C20.2504 3.72629 20.1695 3.79063 20.0885 3.85481C19.9336 3.97982 19.7818 4.10811 19.6301 4.23706C19.3869 4.44385 19.1417 4.64774 18.8942 4.84941C18.4081 5.24586 17.9238 5.64438 17.4459 6.05069C17.1855 6.27172 16.9217 6.4883 16.6562 6.70312C16.6112 6.7409 16.5662 6.77867 16.5198 6.81758C16.4023 6.90625 16.4023 6.90625 16.3008 6.90625C16.3008 4.77801 16.3008 2.64977 16.3008 0.457031Z" fill="#03226A"/>
<path d="M9.69922 19.0938C9.69922 21.222 9.69922 23.3502 9.69922 25.543C9.26616 25.4763 8.91065 25.4178 8.51221 25.2668C8.46506 25.2493 8.41791 25.2317 8.36934 25.2135C7.08596 24.7225 5.87444 24.0461 4.82422 23.1562C4.88711 22.9676 4.96083 22.9229 5.11621 22.8008C5.16668 22.7605 5.21715 22.7203 5.26915 22.6788C5.29601 22.6574 5.32288 22.636 5.35055 22.6139C5.49155 22.5001 5.62902 22.3821 5.76685 22.2644C5.99788 22.0678 6.2323 21.8766 6.47005 21.6882C6.62496 21.5631 6.77683 21.4349 6.92847 21.3059C7.26715 21.0179 7.611 20.7365 7.95599 20.4561C8.20909 20.2498 8.4601 20.0414 8.70898 19.8301C8.81894 19.7369 8.92896 19.6438 9.03906 19.5508C9.07965 19.5165 9.07965 19.5165 9.12106 19.4815C9.19823 19.4165 9.27574 19.3519 9.35327 19.2874C9.39798 19.25 9.44269 19.2126 9.48875 19.1741C9.59766 19.0938 9.59766 19.0938 9.69922 19.0938Z" fill="#03226A"/>
<path d="M9.69922 0.457031C9.69922 2.55176 9.69922 4.64648 9.69922 6.80469C9.50147 6.70581 9.35301 6.58935 9.18823 6.44604C9.12895 6.39516 9.06964 6.34431 9.0103 6.2935C8.98083 6.26823 8.95137 6.24295 8.92101 6.21691C8.801 6.11481 8.67895 6.01534 8.55664 5.91602C8.32282 5.72569 8.09249 5.53161 7.86276 5.3364C7.68927 5.18921 7.51435 5.04402 7.33789 4.90039C7.10407 4.71007 6.87374 4.51599 6.64401 4.32077C6.42614 4.13594 6.2054 3.95486 5.98366 3.77467C5.87791 3.6876 5.77316 3.59983 5.66905 3.51085C5.63992 3.48597 5.61079 3.4611 5.58078 3.43547C5.52465 3.38741 5.46864 3.33922 5.41277 3.29086C5.24078 3.14363 5.06512 3.01645 4.875 2.89453C4.94297 2.73664 5.00809 2.65268 5.14854 2.55434C5.20057 2.5176 5.20057 2.5176 5.25365 2.48012C5.29104 2.45454 5.32842 2.42895 5.36694 2.40259C5.40577 2.37569 5.4446 2.3488 5.4846 2.32108C5.84759 2.07215 6.21806 1.84085 6.60156 1.625C6.63725 1.60472 6.67295 1.58445 6.70972 1.56356C7.56878 1.07984 8.69465 0.457031 9.69922 0.457031Z" fill="#03226A"/>
<path d="M3.50391 4.0625C3.72242 4.08777 3.85691 4.22736 4.01489 4.36719C4.07417 4.41854 4.13348 4.46985 4.19283 4.52112C4.23702 4.55951 4.23702 4.55951 4.28211 4.59868C4.40171 4.70157 4.52393 4.80105 4.64648 4.90039C4.88031 5.09071 5.11063 5.2848 5.34036 5.48001C5.55877 5.6653 5.7801 5.84677 6.0023 6.0275C6.15813 6.15572 6.31162 6.28646 6.46509 6.41748C6.69035 6.60958 6.91976 6.7948 7.15381 6.97607C7.44556 7.20233 7.7254 7.44003 8.00315 7.68319C8.23004 7.88168 8.46098 8.07416 8.6953 8.26385C8.88973 8.42291 9.08098 8.58562 9.27197 8.74878C9.43151 8.88536 9.43151 8.88536 9.6059 9.0016C9.69922 9.08984 9.69922 9.08984 9.71906 9.23802C9.7167 9.29281 9.71434 9.3476 9.71191 9.40405C9.71008 9.45924 9.70825 9.51442 9.70636 9.57127C9.704 9.6135 9.70165 9.65572 9.69922 9.69922C7.80281 9.81959 7.80281 9.81959 7.38717 9.48371C7.27405 9.36824 7.17002 9.24967 7.07263 9.12064C6.97919 9.00304 6.86757 8.91894 6.74756 8.82959C6.52321 8.65286 6.30545 8.4693 6.08797 8.28426C5.91367 8.13616 5.73797 7.99007 5.56055 7.8457C5.32672 7.65538 5.0964 7.4613 4.86667 7.26608C4.69317 7.1189 4.51826 6.97371 4.3418 6.83008C4.13665 6.6631 3.93398 6.49354 3.73242 6.32227C3.47898 6.10692 3.22305 5.89493 2.96515 5.68492C2.8222 5.56837 2.68044 5.45048 2.53906 5.33203C2.56874 5.13261 2.66508 5.02097 2.79297 4.86865C2.83375 4.82002 2.87453 4.77138 2.91655 4.72127C3.10888 4.49849 3.30493 4.27935 3.50391 4.0625Z" fill="#C8122F"/>
<path d="M8.76929 16.2723C8.8597 16.2746 8.95012 16.2767 9.04055 16.2786C9.26025 16.2836 9.47967 16.2914 9.69922 16.3009C9.74764 16.8262 9.74764 16.8262 9.64157 17.0103C9.55861 17.0917 9.47387 17.1579 9.37866 17.2245C9.34608 17.2497 9.3135 17.2749 9.27994 17.3009C9.2141 17.3517 9.1477 17.4018 9.08072 17.4511C8.95611 17.5435 8.83754 17.6424 8.71851 17.7418C8.67406 17.778 8.62961 17.8141 8.58382 17.8513C8.09753 18.2469 7.61388 18.6455 7.13638 19.0516C6.92335 19.2325 6.70723 19.4094 6.49048 19.5858C6.33151 19.7165 6.1744 19.8493 6.01758 19.9825C5.77131 20.1918 5.52238 20.3974 5.27173 20.6014C5.11276 20.7322 4.95566 20.8649 4.79883 20.9982C4.50555 21.2473 4.20929 21.4924 3.91016 21.7345C3.86721 21.7733 3.82427 21.8121 3.78003 21.8521C3.65625 21.9376 3.65625 21.9376 3.55568 21.9424C3.40218 21.8593 3.2969 21.7371 3.18335 21.6075C3.15898 21.5802 3.13461 21.5528 3.10951 21.5246C3.03721 21.4428 2.96576 21.3603 2.89453 21.2775C2.85584 21.233 2.81716 21.1884 2.7773 21.1426C2.59273 20.9198 2.59273 20.9198 2.53906 20.8204C2.57123 20.58 2.73542 20.4741 2.91357 20.3285C2.94578 20.3016 2.97798 20.2746 3.01116 20.2469C3.10728 20.1667 3.20392 20.0872 3.30078 20.0079C3.34968 19.9677 3.39858 19.9276 3.44896 19.8861C3.53861 19.8128 3.62841 19.7396 3.71834 19.6666C3.87684 19.5366 4.03328 19.4044 4.18945 19.2716C4.4359 19.0622 4.68498 18.8564 4.9359 18.6523C5.09172 18.5241 5.24522 18.3934 5.39868 18.2623C5.62395 18.0702 5.85335 17.885 6.0874 17.7037C6.37586 17.48 6.65343 17.2459 6.92715 17.0044C6.98707 16.9517 7.04765 16.8997 7.10879 16.8484C7.21605 16.7564 7.21605 16.7564 7.3233 16.637C7.76222 16.2037 8.19127 16.2467 8.76929 16.2723Z" fill="#C8122F"/>
<path d="M16.3012 16.3009C18.2511 16.1805 18.2511 16.1805 18.6676 16.5164C18.7801 16.6317 18.8832 16.7501 18.9794 16.8794C19.0721 16.9976 19.1836 17.0813 19.3036 17.1705C19.528 17.3472 19.7457 17.5308 19.9632 17.7158C20.1375 17.8639 20.3132 18.01 20.4906 18.1544C20.7245 18.3447 20.9548 18.5388 21.1845 18.734C21.358 18.8812 21.5329 19.0264 21.7094 19.17C21.9145 19.337 22.1172 19.5065 22.3188 19.6778C22.5722 19.8932 22.8281 20.1052 23.086 20.3152C23.229 20.4317 23.3707 20.5496 23.5121 20.6681C23.3633 20.9504 23.1876 21.1792 22.9757 21.4171C22.9465 21.4505 22.9172 21.484 22.887 21.5184C22.7604 21.6623 22.6331 21.8031 22.4965 21.9376C22.3225 21.86 22.1888 21.7577 22.0426 21.6361C21.9935 21.5953 21.9443 21.5545 21.8937 21.5125C21.7019 21.3517 21.511 21.19 21.3203 21.028C21.1468 20.8808 20.9718 20.7355 20.7953 20.5919C20.5615 20.4016 20.3312 20.2075 20.1014 20.0123C19.928 19.8651 19.753 19.7199 19.5766 19.5763C19.3714 19.4093 19.1688 19.2397 18.9672 19.0684C18.725 18.8628 18.4808 18.66 18.2344 18.4593C17.717 18.0373 17.2021 17.6127 16.6939 17.1796C16.5602 17.0596 16.5602 17.0596 16.4099 16.9805C16.2508 16.8034 16.2817 16.6461 16.2923 16.4159C16.2952 16.378 16.2981 16.34 16.3012 16.3009Z" fill="#C8122F"/>
<path d="M22.3945 4.0625C22.8724 4.25653 23.2286 4.87251 23.5117 5.28125C23.1464 5.65868 22.7474 5.99803 22.3395 6.32822C22.1785 6.45976 22.0197 6.59378 21.8613 6.72852C21.6151 6.93774 21.3662 7.1433 21.1156 7.34721C20.9555 7.47895 20.7973 7.61293 20.6394 7.74731C20.4083 7.94383 20.1739 8.13514 19.9362 8.32356C19.7525 8.47173 19.5731 8.62466 19.3934 8.77754C19.1694 8.96789 18.9427 9.15474 18.7146 9.34018C18.5814 9.44532 18.5814 9.44532 18.4544 9.57729C18.2551 9.74257 18.0681 9.73186 17.8182 9.72401C17.7747 9.72366 17.7312 9.7233 17.6863 9.72293C17.5481 9.72151 17.4101 9.71833 17.2719 9.71509C17.1779 9.71381 17.0839 9.71266 16.9898 9.71162C16.7601 9.70883 16.5304 9.70445 16.3007 9.69922C16.2485 9.2249 16.2485 9.2249 16.3631 9.04001C16.453 8.9526 16.5456 8.87828 16.6467 8.8042C16.6815 8.77649 16.7163 8.74877 16.7522 8.72022C16.8223 8.66459 16.8929 8.60965 16.9641 8.55545C17.095 8.45562 17.2214 8.3507 17.3481 8.24561C17.3922 8.20993 17.4362 8.17425 17.4816 8.1375C17.6408 8.00724 17.7976 7.87431 17.9543 7.74097C18.1854 7.54444 18.4197 7.35315 18.6575 7.16472C18.8414 7.01633 19.0211 6.86318 19.201 6.71007C19.3753 6.56195 19.551 6.41586 19.7285 6.27148C19.9336 6.1045 20.1363 5.93495 20.3378 5.76367C20.584 5.55446 20.8329 5.34889 21.0835 5.14497C21.2437 5.01323 21.4018 4.87926 21.5598 4.74487C21.8337 4.51189 22.112 4.28506 22.3945 4.0625Z" fill="#C8122F"/>
<path d="M1.52344 6.75391C1.75331 6.79835 1.88959 6.93175 2.05981 7.08398C2.12378 7.14004 2.18778 7.19604 2.25183 7.252C2.28338 7.27968 2.31493 7.30736 2.34744 7.33588C2.46949 7.44184 2.5944 7.544 2.71997 7.64575C2.92417 7.81157 3.12576 7.98005 3.32617 8.15039C3.52772 8.32167 3.7304 8.49122 3.93555 8.6582C4.1464 8.8301 4.35581 9.00356 4.56396 9.17871C4.59116 9.20146 4.61836 9.22421 4.64639 9.24764C4.81695 9.39167 4.97012 9.54044 5.12891 9.69922C3.58719 9.69922 2.04547 9.69922 0.457031 9.69922C0.523671 9.26606 0.582296 8.91074 0.733154 8.51221C0.750338 8.46572 0.767521 8.41924 0.785225 8.37134C0.996191 7.81638 1.25772 7.28432 1.52344 6.75391Z" fill="#04236A"/>
<path d="M0.40625 16.3008C1.93121 16.3008 3.45617 16.3008 5.02734 16.3008C4.74131 16.5868 4.74131 16.5868 4.60165 16.7078C4.57098 16.7344 4.5403 16.7611 4.5087 16.7885C4.47666 16.8161 4.44463 16.8437 4.41162 16.8721C4.37795 16.9012 4.34428 16.9302 4.30959 16.9602C4.07361 17.1634 3.83433 17.362 3.59238 17.558C3.43434 17.6872 3.27858 17.8189 3.12305 17.9512C2.8775 18.1598 2.62931 18.3649 2.37938 18.5683C2.10837 18.7911 1.84146 19.0188 1.57422 19.2461C1.15406 18.7427 0.933993 18.0213 0.714111 17.4148C0.694956 17.3623 0.675801 17.3098 0.656065 17.2558C0.541875 16.9331 0.474963 16.6443 0.40625 16.3008Z" fill="#03236A"/>
<path d="M24.375 6.80469C24.5273 6.85547 24.5273 6.85547 24.584 6.93898C24.6016 6.97531 24.6191 7.01164 24.6372 7.04907C24.6573 7.09052 24.6774 7.13197 24.6981 7.17467C24.7193 7.22016 24.7404 7.26564 24.7622 7.3125C24.7843 7.35946 24.8063 7.40641 24.8291 7.45479C25 7.82735 25.1493 8.20627 25.2891 8.59155C25.308 8.64363 25.327 8.6957 25.3465 8.74935C25.4595 9.07009 25.5255 9.35789 25.5938 9.69922C24.0688 9.69922 22.5438 9.69922 20.9727 9.69922C21.2586 9.4133 21.2586 9.4133 21.3872 9.30328C21.4156 9.27896 21.444 9.25464 21.4732 9.22958C21.5029 9.20441 21.5325 9.17925 21.563 9.15332C21.5943 9.12662 21.6256 9.09991 21.6578 9.0724C21.8878 8.87672 22.1207 8.68489 22.3551 8.49455C22.5136 8.36458 22.67 8.23235 22.8262 8.09961C23.0718 7.89087 23.3198 7.68543 23.5704 7.4827C23.679 7.39293 23.7853 7.30201 23.891 7.20895C23.9208 7.18293 23.9506 7.15691 23.9813 7.1301C24.0397 7.07902 24.0977 7.02753 24.1553 6.97558C24.2354 6.90585 24.2354 6.90585 24.375 6.80469Z" fill="#03236A"/>
<path d="M21.0742 16.3008C22.5489 16.3008 24.0236 16.3008 25.543 16.3008C25.5062 16.6686 25.4632 16.9484 25.3398 17.2847C25.3167 17.3492 25.3167 17.3492 25.2932 17.415C25.0762 18.0071 24.8129 18.5825 24.5273 19.1445C24.3169 19.0582 24.1595 18.9088 23.991 18.7605C23.927 18.7049 23.863 18.6494 23.799 18.5939C23.7674 18.5665 23.7358 18.5391 23.7033 18.511C23.5809 18.4058 23.4561 18.3036 23.3308 18.2019C23.1266 18.0361 22.925 17.8676 22.7246 17.6973C22.3817 17.406 22.0339 17.1211 21.6842 16.8382C21.6348 16.798 21.5853 16.7579 21.5344 16.7166C21.49 16.6806 21.4455 16.6447 21.3997 16.6077C21.286 16.5112 21.1797 16.4062 21.0742 16.3008Z" fill="#04236A"/>
</g>
<defs>
<clipPath id="clip0_1071_9731">
<rect width="26" height="26" fill="white"/>
</clipPath>
</defs>
</svg>
